<svg xmlns="http://www.w3.org/2000/svg" xmlns:xlink="http://www.w3.org/1999/xlink" width="848.73" height="409.873" viewBox="0 0 848.73 409.873">
  <defs>
    <linearGradient id="linear-gradient" x1="0.5" y1="1" x2="0.5" gradientUnits="objectBoundingBox">
      <stop offset="0" stop-color="gray" stop-opacity="0.251"/>
      <stop offset="0.54" stop-color="gray" stop-opacity="0.122"/>
      <stop offset="1" stop-color="gray" stop-opacity="0.102"/>
    </linearGradient>
    <linearGradient id="linear-gradient-2" x1="0.5" y1="1" x2="0.5" y2="0" xlink:href="#linear-gradient"/>
    <linearGradient id="linear-gradient-4" x1="6.341" y1="1" x2="6.341" y2="0" xlink:href="#linear-gradient"/>
  </defs>
  <g id="Group_694" data-name="Group 694" transform="translate(-192.595 -1487)">
    <g id="Group_614" data-name="Group 614" transform="translate(192.595 1487)">
      <path id="Path_46" data-name="Path 46" d="M272.452,71.793c14.713-13.092,37.8-15.776,58.813-14.733,66.009,3.278,125.592,35.147,177.129,71.195,18.661,13.047,37.03,27.11,49.14,45.082,24.673,36.577,17.342,87.258-16.939,117.389-11.667,10.257-25.806,18.127-40.323,25.081-25.811,12.392-53.662,22.337-82.952,25.177-20.892,2.014-42.04.378-62.806-2.437-58.022-7.88-114.977-25.283-162.713-55.026-20.937-13.062-40.676-29.291-49.306-50.419s-3.107-47.891,18.273-60.394c8.842-5.171,19.416-7.508,29.764-9.7,15.237-3.228,30.716-6.41,44.467-12.971,14.2-6.778,31.013-19.89,28.2-34.89C260.186,99.024,257.764,84.885,272.452,71.793Z" transform="translate(-98.491 -56.857)" fill="#ea4334" opacity="0.1"/>
      <ellipse id="Ellipse_24" data-name="Ellipse 24" cx="55.117" cy="3.535" rx="55.117" ry="3.535" transform="translate(373.11 351.976)" fill="#6c63ff" opacity="0.1"/>
      <ellipse id="Ellipse_25" data-name="Ellipse 25" cx="55.117" cy="3.535" rx="55.117" ry="3.535" transform="translate(229.849 328.32)" fill="#6c63ff" opacity="0.1"/>
      <ellipse id="Ellipse_26" data-name="Ellipse 26" cx="55.117" cy="3.535" rx="55.117" ry="3.535" transform="translate(27.498 384.394)" fill="#6c63ff" opacity="0.1"/>
      <ellipse id="Ellipse_27" data-name="Ellipse 27" cx="22.679" cy="1.455" rx="22.679" ry="1.455" transform="translate(164.671 392.027)" fill="#6c63ff" opacity="0.1"/>
      <ellipse id="Ellipse_28" data-name="Ellipse 28" cx="17.674" cy="1.133" rx="17.674" ry="1.133" transform="translate(509.528 354.881)" fill="#6c63ff" opacity="0.1"/>
      <ellipse id="Ellipse_29" data-name="Ellipse 29" cx="14.985" cy="0.962" rx="14.985" ry="0.962" transform="translate(350.003 331.442)" fill="#6c63ff" opacity="0.1"/>
      <path id="Path_47" data-name="Path 47" d="M1104.583,711.85s2.366,3.1-1.088,7.77-6.314,8.615-5.161,11.526c0,0,5.222-8.676,9.467-8.8S1109.261,717.072,1104.583,711.85Z" transform="translate(-574.838 -383.027)" fill="#6c63ff"/>
      <path id="Path_48" data-name="Path 48" d="M1104.73,711.85a3.918,3.918,0,0,1,.5.972c4.144,4.869,6.349,9.411,2.366,9.527-3.711.106-8.162,6.742-9.23,8.419a3.334,3.334,0,0,0,.126.378s5.222-8.676,9.466-8.8S1109.408,717.072,1104.73,711.85Z" transform="translate(-574.985 -383.027)" opacity="0.1"/>
      <path id="Path_49" data-name="Path 49" d="M1119.214,718.993c0,1.093-.121,1.974-.272,1.974s-.272-.881-.272-1.974.151-.574.3-.574S1119.214,717.905,1119.214,718.993Z" transform="translate(-585.063 -386.227)" fill="#ffd037"/>
      <path id="Path_50" data-name="Path 50" d="M1120.908,721.53c-.957.5-1.787.836-1.863.7s.645-.665,1.6-1.188.579-.141.65,0S1121.865,721.006,1120.908,721.53Z" transform="translate(-585.246 -387.46)" fill="#ffd037"/>
      <path id="Path_51" data-name="Path 51" d="M1080.952,711.85s-2.367,3.1,1.092,7.77,6.309,8.615,5.156,11.526c0,0-5.217-8.676-9.467-8.8S1076.279,717.072,1080.952,711.85Z" transform="translate(-563.7 -383.027)" fill="#6c63ff"/>
      <path id="Path_52" data-name="Path 52" d="M1080.937,711.85a3.808,3.808,0,0,0-.5.972c-4.144,4.869-6.354,9.411-2.371,9.527,3.711.106,8.167,6.742,9.23,8.419a3.264,3.264,0,0,1-.126.378s-5.217-8.676-9.466-8.8S1076.264,717.072,1080.937,711.85Z" transform="translate(-563.685 -383.027)" opacity="0.1"/>
      <path id="Path_53" data-name="Path 53" d="M1077.45,718.993c0,1.093.121,1.974.272,1.974s.277-.881.277-1.974-.156-.574-.307-.574S1077.45,717.905,1077.45,718.993Z" transform="translate(-564.599 -386.227)" fill="#ffd037"/>
      <path id="Path_54" data-name="Path 54" d="M1073.878,721.53c.957.5,1.793.836,1.863.7s-.645-.665-1.6-1.188-.579-.141-.65,0S1072.921,721.006,1073.878,721.53Z" transform="translate(-562.538 -387.46)" fill="#ffd037"/>
      <path id="Path_55" data-name="Path 55" d="M1079,745.846s6.616-.2,8.61-1.621,10.177-3.117,10.675-.841,9.94,11.324,2.473,11.385-17.357-1.163-19.351-2.372S1079,745.846,1079,745.846Z" transform="translate(-565.368 -398.13)" fill="#a8a8a8"/>
      <path id="Path_56" data-name="Path 56" d="M1100.839,757.492c-7.468.06-17.357-1.163-19.346-2.377-1.511-.921-2.12-4.235-2.321-5.765h-.222s.418,5.338,2.407,6.546,11.878,2.432,19.351,2.372c2.155,0,2.9-.78,2.86-1.918C1103.266,757.049,1102.445,757.477,1100.839,757.492Z" transform="translate(-565.344 -401.644)" opacity="0.2"/>
      <path id="Path_57" data-name="Path 57" d="M783.588,672.79s2.014,2.644-.936,6.641-5.4,7.372-4.411,9.865c0,0,4.461-7.422,8.1-7.553S787.576,677.251,783.588,672.79Z" transform="translate(-415.942 -363.454)" fill="#6c63ff"/>
      <path id="Path_58" data-name="Path 58" d="M783.688,672.79a3.32,3.32,0,0,1,.413.831c3.525,4.164,5.433,8.057,2.014,8.147-3.172.091-6.984,5.771-7.9,7.206a2.718,2.718,0,0,0,.111.322s4.461-7.422,8.1-7.553S787.677,677.251,783.688,672.79Z" transform="translate(-416.042 -363.454)" opacity="0.1"/>
      <path id="Path_59" data-name="Path 59" d="M796.088,678.9c0,.931-.106,1.687-.232,1.687s-.237-.755-.237-1.687.131-.5.262-.5S796.088,677.965,796.088,678.9Z" transform="translate(-424.68 -366.165)" fill="#ffd037"/>
      <path id="Path_60" data-name="Path 60" d="M797.539,681.074c-.821.443-1.511.715-1.6.6s.554-.564,1.37-1.007.5-.121.559,0S798.354,680.626,797.539,681.074Z" transform="translate(-424.837 -367.23)" fill="#ffd037"/>
      <path id="Path_61" data-name="Path 61" d="M763.358,672.79s-2.014,2.644.932,6.641,5.4,7.372,4.416,9.865c0,0-4.466-7.422-8.1-7.553S759.359,677.251,763.358,672.79Z" transform="translate(-406.406 -363.454)" fill="#6c63ff"/>
      <path id="Path_62" data-name="Path 62" d="M763.365,672.79a3.227,3.227,0,0,0-.418.831c-3.525,4.164-5.433,8.057-2.014,8.147,3.177.091,6.984,5.771,7.9,7.206-.03.106-.065.216-.106.322,0,0-4.466-7.422-8.1-7.553S759.367,677.251,763.365,672.79Z" transform="translate(-406.413 -363.454)" opacity="0.1"/>
      <path id="Path_63" data-name="Path 63" d="M760.36,678.9c0,.931.106,1.687.237,1.687s.232-.755.232-1.687-.131-.5-.262-.5S760.36,677.965,760.36,678.9Z" transform="translate(-407.175 -366.165)" fill="#ffd037"/>
      <path id="Path_64" data-name="Path 64" d="M757.309,681.074c.816.443,1.511.715,1.591.6s-.549-.564-1.37-1.007-.5-.121-.559,0S756.488,680.626,757.309,681.074Z" transform="translate(-405.413 -367.23)" fill="#ffd037"/>
      <path id="Path_65" data-name="Path 65" d="M761.64,701.872s5.66-.176,7.367-1.39,8.711-2.669,9.134-.72,8.5,9.693,2.115,9.743-14.849-1.007-16.551-2.014S761.64,701.872,761.64,701.872Z" transform="translate(-407.811 -376.553)" fill="#a8a8a8"/>
      <path id="Path_66" data-name="Path 66" d="M780.372,711.849c-6.4.055-14.854-1.007-16.556-2.014-1.294-.791-1.813-3.626-1.984-4.935h-.191s.358,4.562,2.065,5.6,10.161,2.084,16.551,2.014c1.843,0,2.482-.67,2.447-1.642C782.466,711.5,781.741,711.839,780.372,711.849Z" transform="translate(-407.811 -379.576)" opacity="0.2"/>
      <path id="Path_69" data-name="Path 69" d="M292.987,412.081c-.911-1.143-1.949-9-1.949-9l-4.028-20.031-2.085-11.541s-.5-14.577-9.628-21.808l-.71-.559v-.388h0a13.225,13.225,0,0,0-.911-4.1,2.91,2.91,0,0,1-.327-1.375,1.4,1.4,0,0,1,.181-.534h0a4.48,4.48,0,0,1,1.642-1.38,7.188,7.188,0,0,0,3.449-4.471,1.1,1.1,0,0,1,0-.126.637.637,0,0,1,.035-.252c.035-.086,0-.091,0-.141a2.258,2.258,0,0,0,0-.262v-.423a.293.293,0,0,1,0-.065,2.111,2.111,0,0,0-.045-.352v-.025h0a4.074,4.074,0,0,0-2.336-3.162,1.511,1.511,0,0,0,1.032-.861h0a1.984,1.984,0,0,0,.146-.388h0a1.962,1.962,0,0,0,.065-.383v-.06a2.436,2.436,0,0,0,0-.332v-.106a2.213,2.213,0,0,0-.071-.327.5.5,0,0,0,0-.086l-.03-.07h0a8.068,8.068,0,0,0-1.828-2.487c-3.978-4.456-4.748-10.725-5.831-16.536-.6-3.223-1.732-6.893-4.854-8.117a24.174,24.174,0,0,0-2.689-.685c-2.769-.735-5.035-2.669-7.744-3.615a11.693,11.693,0,0,0-5.7-.478c-1.455.242-2.674.957-4.079,1.294-3.021.74-6.687-.086-9.064,2.357-1.667,1.7-1.8,4.285-2.618,6.5-1.551,4.1-5.579,7.09-6.621,11.355-.67,2.749.025,5.539.755,8.3a30.374,30.374,0,0,1,1.108,5.69,12.837,12.837,0,0,1,0,1.46,14.179,14.179,0,0,1-.952,4.139c-3.4,1.259-6.924,2.744-7.185,3.58-.5,1.647-8.721,6.34-8.721,6.34s-3.122,2.664-3.122,3.676-1.037,4.184-1.692,4.184-1.949,12.8-1.949,12.8v13.314s-4.809,15.72-5.917,29.668c0,0-1.944,8.908,1.229,14.018a7.15,7.15,0,0,0,1.566,1.828l1.621,4.235a10.006,10.006,0,0,1,2.145-2.518c.081.529.171,1.148.282,1.838.136.866.3,1.848.5,2.9-1.007,1.576-3.439,4.874-6.36,6.108-2.7,1.138.816,4.149,3.243,5.906-.644,3.207-1.576,7.145-2.331,7.659-1.3.886-5.463,12.045-5.463,12.045s-8.193,19.134,3.58,21.3,17.775-2.915,17.775-2.915h2.82a7.418,7.418,0,0,0,3.525-5.932c1.918-1.581,4.864-4.089,5.463-5.1s-1.052-4.305-2.1-6.1l.277-.5s11.194-14.326,12.624-12.8,2.341,3.928,1.692,5.453l.614,8.777v13.691s-1.606,6.214,0,6.848,0,3.021,0,3.021.6,2.79.71,3.676a33.98,33.98,0,0,1,0,3.424l-.539,13.7-1.042,20.282s-1.168,1.652-.257,2.789.5,3.807.257,4.31a35.947,35.947,0,0,0-.388,4.693s-3.777,3.927-.78,4.945l.116.035c-1.239,1.148-1.254,3.731-1.158,4.532a24.2,24.2,0,0,1-1.465,5.856,4.533,4.533,0,0,1-.614,1.3c-.458.322,0,3.872,0,3.872s14.633,1.2,15.871,0c.5-.468.378-1.606.025-2.921a30.2,30.2,0,0,0-2.236-5.514,6.158,6.158,0,0,1-.453-3.61v-1.511c.982.156,1.621.247,1.621.247s1.823-1.511,1.042-2.915,1.43-9.25,1.43-9.25,2.472-8.877,2.472-9.764,3.253-12.422,3.253-12.422,4.814-20.413,2.472-30.051c0,0,2.08-2.407,1.818-3.021s-.866-3.3.025-4.436,4.663-15.343,5.705-17.75c.478-1.113,1.677-4.184,2.825-7.18,5.181-.775,11.355-2.205,11.355-2.205s-.921-3.923-1.606-7.931l.564-2.754.2-.952a8.913,8.913,0,0,1,1.234,1.511l1.037-5.071s.116-.176.312-.5c1.214-1.9,5.635-8.721,7.754-10.791C295.459,424.126,293.9,413.219,292.987,412.081Z" transform="translate(-125.194 -177.263)" fill="url(#linear-gradient)"/>
      <rect id="Rectangle_877" data-name="Rectangle 877" width="14.351" height="16.113" transform="translate(121.876 150.584)" fill="#925978"/>
      <rect id="Rectangle_878" data-name="Rectangle 878" width="14.351" height="16.113" transform="translate(121.876 150.584)" opacity="0.1"/>
      <path id="Path_70" data-name="Path 70" d="M253.387,632.44s3.651,5.791,2.769,7.3-6.914,6.42-6.914,6.42l-1.783-12.085Z" transform="translate(-152.538 -343.363)" fill="#ea4334"/>
      <path id="Path_71" data-name="Path 71" d="M236.73,654.3l2.664-.378h2.729a7.32,7.32,0,0,0,3.419-6.42c-.206-4.336,0-8.56,0-8.56Z" transform="translate(-147.211 -346.602)" fill="#575988"/>
      <path id="Path_72" data-name="Path 72" d="M236.73,654.3l2.664-.378h2.729a7.32,7.32,0,0,0,3.419-6.42c-.206-4.336,0-8.56,0-8.56Z" transform="translate(-147.211 -346.602)" opacity="0.1"/>
      <path id="Path_73" data-name="Path 73" d="M221.74,552.19l-15.106,16.617s-1.762,10.952-3.021,11.833-5.257,11.959-5.257,11.959-7.921,19.009,3.464,21.149,17.181-2.9,17.181-2.9l9.668-17.5s10.831-14.225,12.216-12.714,2.266,3.9,1.636,5.413l.589,8.686v13.6s-1.551,6.168,0,6.8,0,3.021,0,3.021.584,2.769.69,3.651,0,3.4,0,3.4l-.5,13.6L242.29,658.94s-1.133,1.637-.252,2.769.5,3.777.252,4.28a34.41,34.41,0,0,0-.378,4.658s-3.651,3.9-.755,4.91,11.33,2.266,11.33,2.266,1.762-1.511,1.007-2.9,1.385-9.19,1.385-9.19,2.392-8.812,2.392-9.693,3.147-12.337,3.147-12.337,4.658-20.267,2.392-29.835c0,0,2.014-2.392,1.762-3.021s-.841-3.273,0-4.406,4.532-15.232,5.539-17.624,5.287-13.973,5.287-13.973v-21.4Z" transform="translate(-126.829 -303.761)" fill="#575988"/>
      <path id="Path_74" data-name="Path 74" d="M296.42,373.5l-8.691,16.42-2.291,4.32-.347.66-22.407.881s-.639-1.415-1.546-3.61a106.545,106.545,0,0,1-5.126-15.146,31.141,31.141,0,0,1-.655-3.771c-.332-3.142.171-5.383,2.185-5.574a3.949,3.949,0,0,1,1.511.156,11.44,11.44,0,0,0,4.32.418c5.317-.645,6.873-6.259,7.135-11.536,0-.373.035-.745.04-1.113,0-1.143,0-2.251-.076-3.268a45.82,45.82,0,0,0-.594-5.146,21.865,21.865,0,0,1,4.159-1.536c4.25-1.088,10.237-1.057,10.317,7.7a28.09,28.09,0,0,0,.574,5.781,13.049,13.049,0,0,0,1.083,3.127c1.475,2.835,3.525,3.142,4.486,3.107a2.515,2.515,0,0,0,.529-.055Z" transform="translate(-156.412 -200.41)" fill="#ffc5cb"/>
      <path id="Path_75" data-name="Path 75" d="M291.592,420.32a8.451,8.451,0,0,1,.468,2.775,12.588,12.588,0,0,1-.071,2.986,4.235,4.235,0,0,1-1.4,2.583" transform="translate(-173.951 -237.77)" opacity="0.1"/>
      <ellipse id="Ellipse_30" data-name="Ellipse 30" cx="13.47" cy="13.47" rx="13.47" ry="13.47" transform="translate(110.511 133.131)" opacity="0.1"/>
      <path id="Path_76" data-name="Path 76" d="M305.354,334.428a13.465,13.465,0,0,1-23.339,9.159,4.709,4.709,0,0,1-.332-.378,13.465,13.465,0,1,1,23.666-8.782Z" transform="translate(-167.909 -188.329)" fill="#ffc5cb"/>
      <path id="Path_77" data-name="Path 77" d="M253.222,414.44s4.784,12.463,14.854,10.448c0,0,10.166.8,15.987-6.672s6.168,42.8,6.168,42.8l-2.266,33.359s-16.229,9.693-23.279,8.434-10.448-5.035-10.448-5.035-7.427-6.924-9.441-7.8.881-43.808.881-43.808l2.392-16.113Z" transform="translate(-150.863 -234.963)" opacity="0.1"/>
      <path id="Path_78" data-name="Path 78" d="M253.222,412.44s4.784,12.462,14.854,10.448c0,0,10.166.8,15.987-6.672s6.168,42.8,6.168,42.8l-2.266,33.359s-16.229,9.693-23.279,8.434-10.448-5.035-10.448-5.035-7.427-6.924-9.441-7.8.881-43.808.881-43.808l2.392-16.113Z" transform="translate(-150.863 -233.967)" fill="#e8f4ff"/>
      <path id="Path_79" data-name="Path 79" d="M261.225,552.19s10.826,12.085,10.2,13.344S260.974,555.841,261.225,552.19Z" transform="translate(-159.37 -303.417)" opacity="0.1"/>
      <path id="Path_80" data-name="Path 80" d="M257.53,492.51s3.459,4.834,5.625,4.33" transform="translate(-157.538 -273.697)" opacity="0.1"/>
      <path id="Path_81" data-name="Path 81" d="M240.816,383.383a3.631,3.631,0,0,1-.035.418c-.116,1.546-.549,7.15-1.133,13.394-.327,3.525-.7,7.221-1.083,10.524-.624,5.373-1.289,9.673-1.853,10.282-1.636,1.762-1.007,18.379-1.007,18.379V457.4s-1.38,6.672-2.518,8.182-3.917,7.175-6.143,7.931a7.787,7.787,0,0,0-2.08,1.657c-2.014,2.014-4.864,5.373-7.05,8.021-1.8,2.211-3.137,3.918-3.137,3.918s-8.812-5.539-5.035-7.175c2.825-1.224,5.161-4.5,6.153-6.043a7.1,7.1,0,0,0,.5-.861,23.316,23.316,0,0,1,.8-3.464,11.789,11.789,0,0,1,1.395-3.021,3.444,3.444,0,0,1,2.085-1.576c3.273-.629,4.909-31.723,4.909-31.723l-10.071-21.974-1.007-2.2s1.259-12.714,1.888-12.714,1.636-3.147,1.636-4.154,3.021-3.651,3.021-3.651,7.986-4.673,8.49-6.309c.267-.861,3.928-2.417,7.337-3.7,3.061-1.148,5.917-2.075,5.917-2.075C244.466,379.018,240.816,383.383,240.816,383.383Z" transform="translate(-133.346 -216.096)" opacity="0.1"/>
      <path id="Path_82" data-name="Path 82" d="M239.816,383.383a3.633,3.633,0,0,1-.035.418c-.116,1.546-.549,7.15-1.133,13.394-.327,3.525-.7,7.221-1.083,10.524-.624,5.373-1.289,9.673-1.853,10.282-1.636,1.762-1.007,18.379-1.007,18.379V457.4s-1.38,6.672-2.518,8.182-3.917,7.175-6.143,7.931a7.787,7.787,0,0,0-2.08,1.657c-2.014,2.014-4.864,5.373-7.05,8.021-1.8,2.211-3.137,3.918-3.137,3.918s-8.812-5.539-5.035-7.175c2.825-1.224,5.161-4.5,6.153-6.043a7.1,7.1,0,0,0,.5-.861,23.32,23.32,0,0,1,.8-3.464,11.787,11.787,0,0,1,1.395-3.021,3.444,3.444,0,0,1,2.085-1.576c3.273-.629,4.909-31.723,4.909-31.723l-10.071-21.974-1.007-2.2s1.259-12.714,1.888-12.714,1.636-3.147,1.636-4.154,3.021-3.651,3.021-3.651,7.986-4.673,8.49-6.309c.267-.861,3.928-2.417,7.337-3.7,3.061-1.148,5.917-2.075,5.917-2.075C243.466,379.018,239.816,383.383,239.816,383.383Z" transform="translate(-132.849 -216.096)" fill="#ea4334"/>
      <path id="Path_83" data-name="Path 83" d="M339.15,414.992l-10.871,12.745s9.441,48.969,8.308,51.235a1.961,1.961,0,0,0-.166.594,15.047,15.047,0,0,0,.065,3.525c.131,1.234.332,2.6.559,3.968.665,3.978,1.556,7.875,1.556,7.875s-12.714,3.021-16.617,2.644-1.637-6.672-1.007-9.567-4.28-6.949-4.28-6.949l-6.924-28.425s-.5-6.294-2.014-9.315-.126-6.294-.629-10.574c-.357-3.051,1.838-13.958,3.495-20.3a20.418,20.418,0,0,1,1.511-4.567.32.32,0,0,1,.05-.06c1.007-.881,0-6.042,0-6.042s2.392-13.6,2.14-14.728c-.141-.645.65-2.226,1.36-3.469.539-.942,1.032-1.692,1.032-1.692a160.347,160.347,0,0,1,13.218,9.834l.755.614c8.812,7.175,9.315,21.652,9.315,21.652Z" transform="translate(-182.113 -218.802)" opacity="0.1"/>
      <path id="Path_84" data-name="Path 84" d="M340.15,414.992l-10.871,12.745s9.441,48.969,8.308,51.235a1.959,1.959,0,0,0-.166.594,15.052,15.052,0,0,0,.065,3.525c.131,1.234.332,2.6.559,3.968.665,3.978,1.556,7.875,1.556,7.875s-12.714,3.021-16.617,2.644-1.637-6.672-1.007-9.567-4.28-6.949-4.28-6.949l-6.924-28.425s-.5-6.294-2.014-9.315-.126-6.294-.629-10.574c-.358-3.051,1.838-13.958,3.495-20.3a20.416,20.416,0,0,1,1.511-4.567.316.316,0,0,1,.05-.06c1.007-.881,0-6.042,0-6.042s2.392-13.6,2.14-14.728c-.141-.645.65-2.226,1.359-3.469.539-.942,1.032-1.692,1.032-1.692a160.346,160.346,0,0,1,13.218,9.834l.755.614c8.812,7.175,9.315,21.652,9.315,21.652Z" transform="translate(-182.609 -218.802)" fill="#ea4334"/>
      <path id="Path_85" data-name="Path 85" d="M326.226,461.19c-.126,1.007,3.021,54.508,6.294,57.655Z" transform="translate(-191.641 -258.189)" opacity="0.1"/>
      <path id="Path_86" data-name="Path 86" d="M231.048,581.51c-3.525,2.215-6.214-3.615-8.057-10.338-.861-3.157-1.511-6.511-2.014-9.321-.186-1.047-.342-2.014-.473-2.88-.347-2.246-.5-3.716-.5-3.716l3.706-.745,4.1-.821.5,4.627.237,2.1s.645,1.067,1.511,2.734C232.488,568.026,236.617,578.041,231.048,581.51Z" transform="translate(-138.906 -304.19)" fill="#ffc5cb"/>
      <path id="Path_87" data-name="Path 87" d="M354.093,575.226l-.881,4.345-.549,2.734-.03.136s-11,14.915-14.527,8.746c-2.694-4.713,3.877-12.442,7.12-15.821,1.007-1.047,1.692-1.677,1.692-1.677l5.121,1.1Z" transform="translate(-197.226 -314.129)" fill="#ffc5cb"/>
      <path id="Path_88" data-name="Path 88" d="M295.144,809.274c-1.2,1.193-15.358,0-15.358,0s-.443-3.525,0-3.842a4.428,4.428,0,0,0,.594-1.3,25.055,25.055,0,0,0,1.42-5.811c-.126-1.068-.06-5.348,2.83-5.035,0,0,3.776-7.679,7.936,1.762v2.266A6.288,6.288,0,0,0,293,800.9a30.53,30.53,0,0,1,2.165,5.473C295.511,807.678,295.612,808.8,295.144,809.274Z" transform="translate(-168.489 -421.995)" fill="#ea4334"/>
      <path id="Path_89" data-name="Path 89" d="M295.144,821.729c-1.2,1.193-15.358,0-15.358,0s-.443-3.525,0-3.842a4.428,4.428,0,0,0,.594-1.3c1.873-.8,4.421-1.576,6.2-.9,2.251.856,6.4,2.356,8.56,3.142C295.511,820.133,295.612,821.255,295.144,821.729Z" transform="translate(-168.489 -434.45)" fill="#e8f4ff"/>
      <path id="Path_90" data-name="Path 90" d="M270.467,368.11a19.679,19.679,0,0,1,.871,4.366,12.65,12.65,0,0,1-1.767,5.77c-1.057,2.075-2.251,4.3-1.9,6.6a19.424,19.424,0,0,0,.75,2.568,11.274,11.274,0,0,1-.715,8.117c-.826,1.667-2.518,3.278-4.325,2.739a13.016,13.016,0,0,0-1.2-5.232,5,5,0,0,0-1.345-1.581c-1.309-1.007-3.117-1.219-4.305-2.357a3.613,3.613,0,0,1-.559-.685,5.257,5.257,0,0,1-.7-3.243,2.754,2.754,0,0,1,.065-.5,13.628,13.628,0,0,1,1.219-3.525c.312-.675.64-1.349.967-2.014a31.8,31.8,0,0,0,1.9-4.673c3.061-1.148,5.917-2.074,5.917-2.074,1.677,2.518-1.974,6.9-1.974,6.9a3.637,3.637,0,0,1-.035.418C268.649,379,270.225,373.387,270.467,368.11Z" transform="translate(-156.401 -211.807)" opacity="0.1"/>
      <path id="Path_91" data-name="Path 91" d="M289.516,325.779a5.669,5.669,0,0,0-3.525,2.815c-.695,1.561-.337,3.364-.5,5.066a6.361,6.361,0,0,1-.211,1.1c-.624,2.09-2.583,3.565-3.354,5.579-.055.151-.106.3-.151.463a5.9,5.9,0,0,0-.106,2.427,13.46,13.46,0,1,1,17.07,2.81c.569-1.7,1.168-3.389,1.631-5.121,1.088-4.074,1.274-8.782-1.289-12.13A8.968,8.968,0,0,0,289.516,325.779Z" transform="translate(-167.907 -188.35)" opacity="0.1"/>
      <path id="Path_92" data-name="Path 92" d="M331.969,395.394c-.443,1.606-1.571,3.369-3.233,3.293-.79-.035-1.511-.5-2.3-.579a3.426,3.426,0,0,0-2.86,1.511,20.485,20.485,0,0,0-1.591,2.991c-1.239,2.407-3.666,4.572-6.345,4.194l-.277-.05a4.112,4.112,0,0,1-.8-.247c-2.4-1.007-3.7-4.1-3.615-6.833.1-3.117,1.4-6.068,1.833-9.159.4-2.85.035-5.755.342-8.616a21.037,21.037,0,0,1,.5-2.8c1.475,2.835,3.525,3.142,4.487,3.107.539-.942,1.032-1.692,1.032-1.692a160.365,160.365,0,0,1,13.218,9.834A13.452,13.452,0,0,1,331.969,395.394Z" transform="translate(-184.055 -217.275)" opacity="0.1"/>
      <path id="Path_93" data-name="Path 93" d="M285.308,300.142c2.613.942,4.814,2.86,7.493,3.59a22.7,22.7,0,0,1,2.6.675c3.021,1.214,4.119,4.859,4.7,8.057,1.042,5.77,1.793,11.994,5.64,16.42a7.852,7.852,0,0,1,1.8,2.518,1.971,1.971,0,0,1-1.133,2.543,4.317,4.317,0,0,1,2.246,4.774,7.151,7.151,0,0,1-3.338,4.436c-.75.5-1.657,1.007-1.757,1.893a2.951,2.951,0,0,0,.317,1.37,13.53,13.53,0,0,1,.428,8.429c-.443,1.6-1.571,3.369-3.233,3.293-.79-.035-1.511-.5-2.3-.579a3.434,3.434,0,0,0-2.865,1.511,20.214,20.214,0,0,0-1.591,2.991c-1.234,2.407-3.661,4.572-6.345,4.194-3.087-.438-4.789-4.028-4.693-7.13s1.41-6.068,1.838-9.159c.393-2.85.03-5.755.342-8.616.453-4.189,2.321-8.082,3.409-12.15s1.269-8.782-1.294-12.13a8.963,8.963,0,0,0-9.567-3.021,5.655,5.655,0,0,0-3.525,2.815c-.846,1.9-.126,4.169-.72,6.168-.67,2.246-2.885,3.787-3.525,6.042-.745,2.714,1.007,5.473,1.057,8.283a12.7,12.7,0,0,1-1.762,5.771c-1.062,2.075-2.256,4.3-1.9,6.6a19.394,19.394,0,0,0,.745,2.568,11.3,11.3,0,0,1-.695,8.167c-.826,1.667-2.548,3.278-4.325,2.739-.2-2.493-.549-5.3-2.543-6.813-1.314-1.007-3.122-1.219-4.31-2.362a4.864,4.864,0,0,1-1.274-3.938,12.318,12.318,0,0,1,1.284-4.058c1.445-3.122,3.2-6.234,3.4-9.668.3-5.181-3.021-10.287-1.813-15.343,1.007-4.23,4.915-7.2,6.395-11.284.791-2.2.916-4.768,2.518-6.455,2.316-2.422,5.856-1.6,8.787-2.331,1.36-.342,2.518-1.047,3.948-1.284A10.9,10.9,0,0,1,285.308,300.142Z" transform="translate(-156.378 -177.69)" fill="#925978"/>
      <path id="Path_94" data-name="Path 94" d="M232.08,471.994v16.365c0,.675,0,1.375-.04,2.079-.171,4.532-.861,9.25-.861,9.25a15.187,15.187,0,0,0-2.88-3.167c-2.412-1.9-4.466-1.657-6.012-.79a7.552,7.552,0,0,0-1.793,1.445c-.348-2.246-.5-3.716-.5-3.716l3.706-.745a3.445,3.445,0,0,1,2.085-1.576c3.273-.629,4.909-31.723,4.909-31.723l-10.071-21.974v-1.073l3.4-5.413c5.665-4.909,7.05,2.14,7.05,2.14s1.007,19.134,1.007,19.638Z" transform="translate(-138.901 -242.291)" opacity="0.1"/>
      <path id="Path_95" data-name="Path 95" d="M224.484,469.764v16.365c0,.675,0,1.375-.04,2.08-.171,4.532-.861,9.25-.861,9.25-7.049-9.945-12.024-.7-12.024-.7l-1.571-4.2a7.091,7.091,0,0,1-1.511-1.813c-3.067-5.076-1.188-13.923-1.188-13.923,1.073-13.847,5.725-29.457,5.725-29.457V434.139l3.414-5.413c5.665-4.909,8.057,2.14,8.057,2.14v38.9Z" transform="translate(-132.312 -241.18)" fill="#ea4334"/>
      <path id="Path_96" data-name="Path 96" d="M226.2,546.62c-.171,4.532-.861,9.25-.861,9.25-7.049-9.945-12.024-.7-12.024-.7l-1.571-4.2a7.086,7.086,0,0,1-1.511-1.813C213.513,547.34,220.749,544.006,226.2,546.62Z" transform="translate(-134.055 -300.159)" opacity="0.1"/>
      <path id="Path_97" data-name="Path 97" d="M226.2,547.62c-.171,4.532-.861,9.25-.861,9.25-7.05-9.945-12.024-.705-12.024-.705l-1.571-4.2a7.088,7.088,0,0,1-1.511-1.813C213.513,548.34,220.749,545.006,226.2,547.62Z" transform="translate(-134.055 -300.657)" fill="#ea4334"/>
      <path id="Path_99" data-name="Path 99" d="M223,480.94s2.266,12.462,4.532,16.113S223,480.94,223,480.94Z" transform="translate(-140.395 -267.956)" opacity="0.1"/>
      <path id="Path_100" data-name="Path 100" d="M211.48,522.94s1.385,7.553,4.28,8.434S211.48,522.94,211.48,522.94Z" transform="translate(-134.676 -288.85)" opacity="0.1"/>
      <path id="Path_101" data-name="Path 101" d="M354.769,506.182l2.054.438-.881,4.345a10.015,10.015,0,0,0-1.108-1.234,10.805,10.805,0,0,0-6.878-2.971,13.2,13.2,0,0,0-3.343.211,28.253,28.253,0,0,0,.947-5.232,3.378,3.378,0,0,0-.317-1.944c-1.007-1.385-1.511-14.225-1.511-14.225a74.776,74.776,0,0,1,1.385-7.8c.5-1.259-2.266-7.694-2.14-9.638s1.637-18.686,1.637-19.567,3.273-18.127,10.071-11.581l2.644,3.651.171.977-10.871,12.745s9.441,48.969,8.308,51.235a1.958,1.958,0,0,0-.166.594Z" transform="translate(-199.957 -245.429)" opacity="0.1"/>
      <path id="Path_102" data-name="Path 102" d="M367.151,495.281c-2.054,2.054-6.329,8.832-7.5,10.715l-.3.5-1.007,5.035s-3.525-6.042-11.707-4.532a28.248,28.248,0,0,0,.947-5.232,3.378,3.378,0,0,0-.317-1.944c-1.007-1.385-1.511-14.225-1.511-14.225a74.754,74.754,0,0,1,1.385-7.8c.5-1.259-2.266-7.694-2.14-9.638s1.636-18.686,1.636-19.567,3.273-18.127,10.071-11.581l2.644,3.651,2.014,11.455,3.9,19.89s1.007,7.8,1.888,8.938S369.533,492.889,367.151,495.281Z" transform="translate(-200.959 -245.445)" fill="#ea4334"/>
      <path id="Path_103" data-name="Path 103" d="M361.246,570.3l-.3.5-1.007,5.035s-3.525-6.043-11.707-4.532a28.262,28.262,0,0,0,.947-5.232C351.981,566.256,357.631,567.047,361.246,570.3Z" transform="translate(-202.567 -310.325)" opacity="0.1"/>
      <path id="Path_104" data-name="Path 104" d="M361.246,571.3l-.3.5-1.007,5.035s-3.525-6.042-11.707-4.532a28.262,28.262,0,0,0,.947-5.232C351.981,567.256,357.631,568.047,361.246,571.3Z" transform="translate(-202.567 -310.822)" fill="#ea4334"/>
      <path id="Path_106" data-name="Path 106" d="M357.73,505.19s8.56-.106,9.819,4.351S357.73,505.19,357.73,505.19Z" transform="translate(-207.284 -280.01)" opacity="0.1"/>
      <path id="Path_107" data-name="Path 107" d="M354.48,530.173s14.477-.629,13.847,5.665S354.48,530.173,354.48,530.173Z" transform="translate(-205.67 -292.439)" opacity="0.1"/>
      <path id="Path_108" data-name="Path 108" d="M356.23,549.434s1.133-.252,1.888,2.392S356.23,549.434,356.23,549.434Z" transform="translate(-206.539 -302.025)" opacity="0.1"/>
      <path id="Path_109" data-name="Path 109" d="M298,671.249s3.449-1.007,5.035,0S298,671.249,298,671.249Z" transform="translate(-177.63 -362.432)" opacity="0.1"/>
      <path id="Path_110" data-name="Path 110" d="M299.23,678.94s8.182.126,8.938,1.007S299.23,678.94,299.23,678.94Z" transform="translate(-178.24 -366.484)" opacity="0.1"/>
      <g id="Group_610" data-name="Group 610" transform="translate(98.815 134.466)" opacity="0.1">
        <path id="Path_111" data-name="Path 111" d="M262.587,357.666c.242-4.119-1.788-8.182-2.039-12.216-.262,4.069,1.8,8.167,2.014,12.316A.749.749,0,0,0,262.587,357.666Z" transform="translate(-257.84 -334.989)"/>
        <path id="Path_112" data-name="Path 112" d="M281.776,378.38c-1.047,2.044-2.216,4.23-1.913,6.5a15.814,15.814,0,0,1,1.913-4.985,12.7,12.7,0,0,0,1.767-5.771,4.919,4.919,0,0,0-.045-.665A14.385,14.385,0,0,1,281.776,378.38Z" transform="translate(-267.416 -348.895)"/>
        <path id="Path_113" data-name="Path 113" d="M356.88,363.858a3.312,3.312,0,0,1,1.007.665,2.367,2.367,0,0,0,.131-1.692.113.113,0,0,0-.025-.07A1.546,1.546,0,0,1,356.88,363.858Z" transform="translate(-305.677 -343.583)"/>
        <path id="Path_114" data-name="Path 114" d="M267.684,408.589c-.826,1.667-2.548,3.278-4.325,2.739-.2-2.492-.549-5.3-2.543-6.813-1.314-1.007-3.122-1.219-4.305-2.357a4.426,4.426,0,0,1-1.249-2.669c0,.081-.025.161-.03.242a4.849,4.849,0,0,0,1.279,3.938c1.183,1.143,2.991,1.37,4.305,2.362,2.014,1.511,2.346,4.32,2.543,6.813,1.778.539,3.5-1.073,4.325-2.739a11.289,11.289,0,0,0,1.113-5.7A11.177,11.177,0,0,1,267.684,408.589Z" transform="translate(-255.192 -361.818)"/>
        <path id="Path_115" data-name="Path 115" d="M356.311,374.316a7.174,7.174,0,0,1-3.333,4.436c-.755.5-1.662,1.007-1.762,1.893a2.191,2.191,0,0,0,.171,1.007,4.417,4.417,0,0,1,1.591-1.37,7.121,7.121,0,0,0,3.333-4.436,4.582,4.582,0,0,0,0-1.637A1.019,1.019,0,0,1,356.311,374.316Z" transform="translate(-302.862 -349.268)"/>
        <path id="Path_116" data-name="Path 116" d="M331.973,403.645c-.443,1.6-1.566,3.369-3.233,3.293-.79-.035-1.511-.5-2.3-.579a3.434,3.434,0,0,0-2.865,1.511,19.981,19.981,0,0,0-1.586,2.991c-1.239,2.407-3.666,4.572-6.344,4.194s-4.4-3.263-4.658-6.088c0,.156-.035.312-.035.473-.1,3.117,1.6,6.692,4.693,7.13,2.679.378,5.106-1.788,6.345-4.194a19.732,19.732,0,0,1,1.586-2.991,3.361,3.361,0,0,1,2.865-1.511c.785.076,1.511.544,2.3.579,1.667.076,2.79-1.692,3.233-3.293a13.282,13.282,0,0,0,.448-4.361A13.291,13.291,0,0,1,331.973,403.645Z" transform="translate(-282.875 -362.469)"/>
        <path id="Path_117" data-name="Path 117" d="M302.2,329.607a10.574,10.574,0,0,1,2.014,6.042,11.4,11.4,0,0,0-2.014-7.583,8.963,8.963,0,0,0-9.567-3.021,5.655,5.655,0,0,0-3.525,2.815c-.851,1.9-.131,4.174-.725,6.168-.67,2.246-2.885,3.787-3.525,6.042a5.78,5.78,0,0,0-.131,2.215,5.034,5.034,0,0,1,.131-.7c.619-2.256,2.835-3.8,3.525-6.042.594-2.014-.126-4.265.725-6.168a5.515,5.515,0,0,1,3.525-2.815A8.963,8.963,0,0,1,302.2,329.607Z" transform="translate(-269.83 -324.675)"/>
      </g>
      <path id="Path_135" data-name="Path 135" d="M909.507,603.21c-.03,1.7-.216,3.585-.216,3.585a26,26,0,0,1-7.971-.589,21.76,21.76,0,0,0-7.16-.272,1.647,1.647,0,0,1-1.838-1.551c-.035-.645-.08-1.42-.121-2.256a20.473,20.473,0,0,1,6.768-.116A96.975,96.975,0,0,0,909.507,603.21Z" transform="translate(-472.629 -328.081)" fill="#f1faff"/>
      <g id="Group_626" data-name="Group 626" transform="translate(197.587 52.729)">
        <path id="Path_122" data-name="Path 122" d="M777.945,335.648c-.5-1.007-5.2-7.744-5.2-7.744h0l-.141-.6-1.541-6.873-.106-.5a3.305,3.305,0,0,0,1.959-.972c1.108-1.939-.937-4.3-.937-4.3l-.428-10.192-1.108-24.673s-2.3-8.258-2.644-10.192-3.495-5.982-3.495-5.982a4.771,4.771,0,0,0-.171-3.454c-.851-1.44-2.729-8.172-2.729-8.172l-1.616-18.631-.77-18.329a11.452,11.452,0,0,1,2.3.217c.111.091.05-.136-.111-.544a.323.323,0,0,1,.111.04c.262.211-.438-1.365-1.193-2.971l-.091-.186a60.611,60.611,0,0,1,2.905-8.56c.775-1.42-.715-11.224-1.853-17.921-.08-.478-.161-.937-.237-1.38,1.848-3.233,3.968-6.9,3.968-6.9s5.367-15.328,7.583-21.984,0-23.918,0-23.918h0s0-.846-.121-2.165c-.347-3.565-1.677-10.539-6.783-13.248-6.989-3.706-9.2-8.253-9.2-8.253s-8.721-7.936-9.824-5.272l-.076-.151a17.423,17.423,0,0,1-1.425-4.194c-.03-.151-.055-.3-.081-.448a13.5,13.5,0,0,0,2.87-3.112c0,.222-.035.443-.05.665h0v.609a2.556,2.556,0,0,0,0,.277V95.8a1.6,1.6,0,0,0,1.586-.881,6.239,6.239,0,0,0,.539-1.838,11.323,11.323,0,0,1,1.6-3.807c.745-1.143,1.742-2.291,1.873-3.6a2.734,2.734,0,0,0,0-.574c-.065-.665-.378-1.284-.473-1.944a4.124,4.124,0,0,1,0-1.007h0a3.761,3.761,0,0,1,.076-.584c.03-.191.08-.5.116-.786s.066-.438.091-.66V80.1a7.226,7.226,0,0,0,0-1.747,3.378,3.378,0,0,0-1.631-2.628c-.5-.257-1.083-.337-1.586-.594-1.329-.68-1.752-2.311-2.518-3.57a6.294,6.294,0,0,0-4.985-2.865c-2.014-.081-3.988.8-5.967.5-1.264-.2-2.427-.886-3.706-.977-1.868-.131-3.55,1.007-5.065,2.1a5.934,5.934,0,0,0-2.568,2.91c-.282,1.037,0,2.231-.584,3.137-.378.589-1.062.926-1.486,1.511a2.518,2.518,0,0,0-.5,1.616v.433c.035.388.106.78.171,1.163a1.109,1.109,0,0,1,0,.121h0a5.413,5.413,0,0,1-.574,2.845,4.351,4.351,0,0,0-.272,1.365v.171a2.71,2.71,0,0,0,0,.292h0a1.727,1.727,0,0,0,.453.967,1.512,1.512,0,0,1,.5-.5c0,.151,0,.3,0,.458v.03a13.278,13.278,0,0,0,4.028,9.517,3.334,3.334,0,0,1-.06.443c-.216,1.511-.5,3.172-.851,4.763l-.121.5h-2.518s.428-1.853-3.751.423-9.3,3.369-10.071,3.787-10.227,7.754-10.227,7.754-8.187,4.713-7.931,12.8h0l-.936,9.064-.68,16.929s-1.279,14.406,0,16.425,3.495,13.983,3.067,15.5c-.307,1.1,2.779,8.812,4.924,13.308a18.245,18.245,0,0,0-1.6,1.934s-.856,3.374-.856,3.711a.067.067,0,0,0,.04.055c-1.888,1.913-4.9,5.061-4.9,5.755,0,1.007.6,1.888-.337,1.828s-.967,1.037-.911,1.707-1.138-.332-1.052.926-8.7,21.058-8.7,21.058-4,9.688-5.539,11.289-3.666,8.676-3.495,11.284.257,3.374-.428,3.374-2.044,2.357-2.044,2.357l-6.732,20.72s-1.964,6.4-2.558,6.319-1.934,11-1.934,11-1.445,3.283-1.7,3.283c-.05,0,.186.237.624.609l-.292.247a21.371,21.371,0,0,1-1.989,1.511c-.025,0-3.892-2.684-6.546-2.432s-8.1.921-10.831-1.007a14.942,14.942,0,0,0-7.261-2.054c-2.044-.03-3.7.5-3.817,2.054-.257,3.449,9.29,9.94,9.29,9.94s10.071,2.86,12.019,5.539,10,6.737,10,6.737a12.012,12.012,0,0,0,3.333-2.14h0a1.058,1.058,0,0,0,.332-.8c-.171-1.264,3.323-6.042,3.323-6.042l.5-2.372c.247-1.173.559-2.6.866-3.857q.06-.257.121-.5a2.935,2.935,0,0,0,1.173-.181,6.336,6.336,0,0,0,3.751-5.035l5.1-10.67s2.216-6.148,2.9-7.246,5.967-12.125,5.967-12.125.937-4.718,1.793-6.148.937-4.532.937-4.532,1.788-4.718,3.666-6.571a24.842,24.842,0,0,0,3.494-4.8s7.755-12.216,13.042-15.665c0,0,12.7-15.5,13.47-16.848s3.152-4.884,6.043-1.687S731.9,225.9,731.9,225.9l5.207,14.149,5.8,18.127s2.724,4.376,2.558,5.3,4.431,9.184,4.431,9.184,1.788,3.021,1.45,4.532,1.279,3.021,1.279,3.021l.5,6.148s1.878,6.042,1.364,6.994,1.793,6.737,1.793,6.737,0,5.136.851,6.823,1.888,8.419,1.8,8.923,0,5.141,0,5.141.6,0,1.551-.03l.04.5.423,5.071.04.468a2.014,2.014,0,0,0-.78,1.48c0,1.37.2,5.393.372,8.56.04.841.086,1.616.126,2.266a1.667,1.667,0,0,0,1.863,1.556,22.463,22.463,0,0,1,7.276.272,26.724,26.724,0,0,0,8.1.594s.186-1.9.216-3.6A7.1,7.1,0,0,0,777.945,335.648Z" transform="translate(-624.81 -68.21)" fill="url(#linear-gradient-2)"/>
        <path id="Path_123" data-name="Path 123" d="M844.867,517.467h-11.5l-.111-1.355-.418-5.055-.312-3.827H842.6l.614,2.785,1.516,6.848Z" transform="translate(-698.252 -257.536)" fill="#ffaab0"/>
        <path id="Path_124" data-name="Path 124" d="M691.6,540.188a11.993,11.993,0,0,0-.937,3.021c-.65,2.7-1.329,6.208-1.329,6.208l-.423.1-8.963,2.165s-4.7-10.741-2.518-10.992a5.54,5.54,0,0,0,2.13-.947,20.535,20.535,0,0,0,2.059-1.561c1.193-1.007,2.1-1.944,2.1-1.944S692.19,539.6,691.6,540.188Z" transform="translate(-650.648 -300.57)" fill="#ffaab0"/>
        <path id="Path_125" data-name="Path 125" d="M696.28,540.178a11.986,11.986,0,0,0-.937,3.021c-3.1-.181-7.78-3.857-9.064-5.035,1.193-1.007,2.1-1.944,2.1-1.944S696.87,539.589,696.28,540.178Z" transform="translate(-655.328 -300.56)" opacity="0.1"/>
        <path id="Path_126" data-name="Path 126" d="M902.155,566.865a55.785,55.785,0,0,1-10.373,1.042l-.312-3.827h10.071Z" transform="translate(-757.197 -314.392)" opacity="0.1"/>
        <path id="Path_127" data-name="Path 127" d="M726.924,335.75s-6.294,6.209-6.294,7.216.589,1.878-.332,1.823-.952,1.032-.9,1.7-1.118-.337-1.037.921-8.56,20.982-8.56,20.982-3.943,9.653-5.453,11.244-3.61,8.646-3.439,11.249.252,3.354-.423,3.354-2.014,2.352-2.014,2.352l-6.627,20.645s-1.934,6.38-2.518,6.294-2.014,10.992-2.014,10.992-1.43,3.273-1.682,3.273,7.3,6.546,10.66,5.207a6.323,6.323,0,0,0,3.691-5.035l5.035-10.574s2.185-6.128,2.855-7.221,5.876-12.085,5.876-12.085.921-4.7,1.762-6.123.921-4.532.921-4.532,1.762-4.7,3.61-6.546a24.824,24.824,0,0,0,3.439-4.784s7.638-12.17,12.84-15.61c0,0,12.5-15.443,13.258-16.788s3.107-4.864,5.962-1.677,5.871,7.3,5.871,7.3l5.121,14.1,5.705,18.042s2.689,4.366,2.518,5.287,4.366,9.149,4.366,9.149,1.762,3.021,1.425,4.532,1.259,3.021,1.259,3.021l.5,6.128s1.848,6.042,1.345,6.964,1.762,6.712,1.762,6.712,0,5.121.841,6.8,1.843,8.394,1.762,8.9,0,5.121,0,5.121,12.664-.086,13.756-2.014-.921-4.28-.921-4.28l-.423-10.156-1.088-24.588s-2.266-8.228-2.6-10.156-3.439-5.957-3.439-5.957a4.8,4.8,0,0,0-.171-3.444c-.841-1.43-2.684-8.137-2.684-8.137l-1.6-18.55-.821-20.222Z" transform="translate(-655.004 -201.034)" fill="#dce6f2"/>
        <path id="Path_128" data-name="Path 128" d="M829.6,346.19c-.5-.423-21.148-.589-21.4-.589s-8.057-3.107-8.057-3.107-17.372-2.85-20.056-1.591-11-2.352-11-2.352v-1.6s-4.446-1.511-4.446-1.843.841-3.7.841-3.7l.5-.176,1.923-.66,59,9.482s.78,1.6,1.511,3.167S829.853,346.4,829.6,346.19Z" transform="translate(-694.231 -198.467)" opacity="0.1"/>
        <path id="Path_129" data-name="Path 129" d="M829.6,345.19c-.5-.423-21.148-.589-21.4-.589s-8.057-3.107-8.057-3.107-17.372-2.85-20.056-1.591-11-2.352-11-2.352v-1.6s-4.446-1.511-4.446-1.843.841-3.7.841-3.7l.5-.176,1.923-.66,59,9.482s.78,1.6,1.511,3.167S829.853,345.4,829.6,345.19Z" transform="translate(-694.231 -197.971)" fill="#f1faff"/>
        <path id="Path_130" data-name="Path 130" d="M689.813,550l-.5,2.372s-.166.232-.423.6l-8.938,2.165s-4.7-10.74-2.518-10.992a5.539,5.539,0,0,0,2.13-.947c-.458,3.364,2.15,6.9,2.15,6.9C685.392,552.873,689.813,550,689.813,550Z" transform="translate(-650.648 -304.025)" opacity="0.1"/>
        <path id="Path_131" data-name="Path 131" d="M664.938,545.034l-.5,2.372s-3.439,4.784-3.273,6.042a1.068,1.068,0,0,1-.327.8h0a11.791,11.791,0,0,1-3.283,2.13s-7.885-4.028-9.819-6.712-11.833-5.539-11.833-5.539-9.4-6.465-9.144-9.9c.111-1.511,1.742-2.075,3.756-2.044a14.536,14.536,0,0,1,7.15,2.044c2.689,1.929,8.057,1.259,10.66,1.007s6.43,2.427,6.43,2.427c-.871,3.525,2.044,7.477,2.044,7.477C660.517,547.909,664.938,545.034,664.938,545.034Z" transform="translate(-625.773 -298.553)" fill="#575988"/>
        <path id="Path_132" data-name="Path 132" d="M660.885,554.239h0a11.794,11.794,0,0,1-3.283,2.13s-7.885-4.028-9.819-6.712-11.833-5.539-11.833-5.539-9.4-6.465-9.144-9.9c.111-1.511,1.742-2.075,3.756-2.044,1.511,2.518,3.741,6.017,5.388,6.994,2.689,1.6,7.976,4.617,7.976,4.617s8.389,5.287,8.978,5.876A37.589,37.589,0,0,0,660.885,554.239Z" transform="translate(-625.798 -298.548)" fill="#f1faff"/>
        <path id="Path_133" data-name="Path 133" d="M904.542,580.991H893.031l-.111-1.355c1.45-1.365,4.557-2.014,4.557-2.014,2.155-.66,6.128,2.17,6.913,2.754Z" transform="translate(-757.917 -321.066)" opacity="0.1"/>
        <path id="Path_134" data-name="Path 134" d="M909.144,591.684c-.03,1.7-.216,3.585-.216,3.585a25.987,25.987,0,0,1-7.971-.589,21.761,21.761,0,0,0-7.16-.272,1.646,1.646,0,0,1-1.838-1.551c-.035-.645-.081-1.42-.121-2.256-.171-3.137-.368-7.145-.368-8.51,0-2.346,5.287-3.439,5.287-3.439,2.4-.735,7.049,2.855,7.049,2.855s4.617,6.712,5.121,7.719A7.114,7.114,0,0,1,909.144,591.684Z" transform="translate(-757.197 -321.577)" fill="#575988"/>
        <path id="Path_136" data-name="Path 136" d="M698.118,504.5s-1.762,3.021,0,4.406S698.118,504.5,698.118,504.5Z" transform="translate(-660.816 -284.812)" opacity="0.1"/>
        <path id="Path_137" data-name="Path 137" d="M886.89,527.75c.5,1.007,1.843,2.518,1.611,4.28S886.89,527.75,886.89,527.75Z" transform="translate(-754.923 -296.355)" opacity="0.1"/>
        <path id="Path_138" data-name="Path 138" d="M851.144,136.452s-7.689-.78-15.66-1.838l-.327-.045c-9.255-1.234-18.752-2.83-16.913-3.993a6.657,6.657,0,0,0,2.079-3.394,29.8,29.8,0,0,0,.891-3.147h0c.04-.166.076-.337.116-.5.347-1.586.625-3.243.841-4.743.428-3.056.6-5.494.6-5.494s19.724-7.472,17.292,1.843A10.172,10.172,0,0,0,840,119.7a17.47,17.47,0,0,0,1.4,4.179C844.543,130.586,851.144,136.452,851.144,136.452Z" transform="translate(-720.728 -89.185)" fill="#ffaab0"/>
        <path id="Path_139" data-name="Path 139" d="M844.166,115.127a10.172,10.172,0,0,0-.071,4.562,13.343,13.343,0,0,1-17.825-.911c.428-3.056.6-5.494.6-5.494S846.6,105.812,844.166,115.127Z" transform="translate(-724.828 -89.18)" opacity="0.1"/>
        <path id="Path_140" data-name="Path 140" d="M845.157,94.064a13.344,13.344,0,0,1-26.687.03v-.03a13.344,13.344,0,1,1,26.687,0Z" transform="translate(-720.955 -74.421)" fill="#ffaab0"/>
        <path id="Path_141" data-name="Path 141" d="M835.661,146.954a2.573,2.573,0,0,1-.176.549l-.327-.045c-9.255-1.234-18.752-2.83-16.913-3.993a6.657,6.657,0,0,0,2.079-3.394,29.8,29.8,0,0,0,.891-3.147h0c.04-.166.076-.337.116-.5h.388c.03.211,1.007,6.662,9.663,7.765l.292.035C835.051,144.6,835.912,145.705,835.661,146.954Z" transform="translate(-720.728 -102.074)" opacity="0.1"/>
        <path id="Path_142" data-name="Path 142" d="M832.241,147.949c-.423,2.09-3.988,4.567-3.988,4.567l-9.9-1.848s-6.209-5.539-6.209-5.705,3.691-7.553,3.691-7.553H818.3c.03.212,1.007,6.662,9.663,7.765l.292.035C831.632,145.592,832.493,146.7,832.241,147.949Z" transform="translate(-717.813 -102.565)" fill="#f1faff"/>
        <path id="Path_143" data-name="Path 143" d="M848.228,149.678s-7.9-.8-15.987-1.883c-.423,2.09-3.988,4.567-3.988,4.567l-9.9-1.848s-6.209-5.539-6.209-5.705,3.691-7.553,3.691-7.553h.126a11.758,11.758,0,0,0,1.45,3.152c1.556,2.377,4.532,4.98,10.071,4.653l.463-.035c8.314-.69,10.181-6.445,10.524-7.926C841.627,143.812,848.228,149.678,848.228,149.678Z" transform="translate(-717.813 -102.411)" opacity="0.1"/>
        <path id="Path_144" data-name="Path 144" d="M829.232,342.229l-.166.609c-2.014-1.511-16.7-2.518-16.7-2.518s-3.862-.453-7.553-1.042a32.1,32.1,0,0,1-6.219-1.39,6.246,6.246,0,0,0-.68-.257c-3.343-1.047-13.6-2.261-13.6-2.261s-5.035,2.266-7.719,1.259-10.323-5.71-10.323-5.71.166-.252.5-.68l1.924-.66,59,9.482S828.507,340.663,829.232,342.229Z" transform="translate(-695.045 -197.971)" opacity="0.1"/>
        <path id="Path_145" data-name="Path 145" d="M825.567,219.587c1.123,6.677,2.588,16.44,1.828,17.855-1.178,2.18-2.941,8.812-2.941,8.812-2.014-1.511-16.7-2.518-16.7-2.518s-3.862-.453-7.553-1.042a32.1,32.1,0,0,1-6.219-1.39,6.235,6.235,0,0,0-.68-.257c-3.344-1.047-13.6-2.261-13.6-2.261s-5.035,2.266-7.719,1.259-10.322-5.71-10.322-5.71a24.728,24.728,0,0,1,3.776-4.109c2.6-2.352,7.382-22.579,7.261-22.83a44.7,44.7,0,0,1-.967-10.489c.337-3.777-1.007-22.241-1.007-22.241s-13.5-5.227-13.736-13.283,7.8-12.755,7.8-12.755,9.315-7.3,10.071-7.724,5.791-1.511,9.9-3.777,3.691-.418,3.691-.418,1.682,8.9,11.667,8.308,11.078-8.308,11.078-8.308c1.073-2.684,9.673,5.287,9.673,5.287s2.18,4.532,9.064,8.223c5.035,2.7,6.334,9.648,6.677,13.2.126,1.314.121,2.16.121,2.16L816.518,180.1l7.951,33.148S824.972,215.951,825.567,219.587Z" transform="translate(-690.433 -101.865)" fill="#575988"/>
        <path id="Path_146" data-name="Path 146" d="M793.81,328.5s6.631,11.41,13.51,8.223A8.057,8.057,0,0,0,811,333.363a8.331,8.331,0,0,0-5.257-12.085,13.935,13.935,0,0,0-5.72-.5C795.235,321.621,793.81,328.5,793.81,328.5Z" transform="translate(-708.713 -193.536)" fill="#ffaab0"/>
        <path id="Path_147" data-name="Path 147" d="M793.81,328.5s6.631,11.41,13.51,8.223A8.057,8.057,0,0,0,811,333.363a8.331,8.331,0,0,0-5.257-12.085,13.935,13.935,0,0,0-5.72-.5C795.235,321.621,793.81,328.5,793.81,328.5Z" transform="translate(-708.713 -193.536)" opacity="0.1"/>
        <path id="Path_148" data-name="Path 148" d="M774.48,170.75s5.232,3.525,5.343,9.064Z" transform="translate(-699.116 -119.117)" opacity="0.1"/>
        <path id="Path_149" data-name="Path 149" d="M790.392,176.08c0,.337-1.511,23.666,1.173,31.637S790.392,176.08,790.392,176.08Z" transform="translate(-706.805 -121.763)" opacity="0.1"/>
        <path id="Path_150" data-name="Path 150" d="M845.167,94.059a13.247,13.247,0,0,1-2.16,7.281v-.5a8.9,8.9,0,0,0-1.546-3.872,7.708,7.708,0,0,0-2.014-2.487,3.833,3.833,0,0,1-.68-.5,3.564,3.564,0,0,1-.5-2.014,4.5,4.5,0,0,0-3.62-3.777,1.511,1.511,0,0,0-1.128.161c-.342.242-.5.69-.79.967a2.025,2.025,0,0,1-1.747.242c-1.319-.262-2.694-.74-3.973-.317-2.2.73-3.021,3.766-5.272,4.33a12.9,12.9,0,0,1-2.014.141,2.783,2.783,0,0,0-1.229.378v-.03a13.344,13.344,0,1,1,26.687,0Z" transform="translate(-720.965 -74.416)" opacity="0.1"/>
        <path id="Path_151" data-name="Path 151" d="M817.645,80.153c.418-.559,1.088-.9,1.465-1.485.574-.9.292-2.09.574-3.122a5.9,5.9,0,0,1,2.518-2.9c1.511-1.088,3.147-2.221,4.985-2.095,1.259.091,2.4.775,3.651.977,1.949.317,3.9-.559,5.876-.5a6.174,6.174,0,0,1,4.9,2.86c.78,1.249,1.193,2.875,2.518,3.525.5.257,1.067.337,1.561.594a3.369,3.369,0,0,1,1.606,2.623,11.845,11.845,0,0,1-.222,3.177,5.679,5.679,0,0,0-.07,1.6c.091.66.4,1.274.468,1.939.151,1.511-1.007,2.835-1.848,4.129a11.461,11.461,0,0,0-1.566,3.8,6.2,6.2,0,0,1-.534,1.833,1.581,1.581,0,0,1-1.561.881c-.1-.911.131-1.833.07-2.749a8.857,8.857,0,0,0-1.546-3.867,7.681,7.681,0,0,0-2.014-2.493,3.563,3.563,0,0,1-.675-.5,3.473,3.473,0,0,1-.5-2.014,4.5,4.5,0,0,0-3.62-3.771,1.511,1.511,0,0,0-1.128.156c-.342.242-.5.69-.79.967a2.008,2.008,0,0,1-1.747.242c-1.319-.257-2.694-.74-3.973-.317-2.2.73-3.021,3.766-5.272,4.33a12.261,12.261,0,0,1-2.014.141,2.125,2.125,0,0,0-1.732.9,2.709,2.709,0,0,1-.206-2.769,5.326,5.326,0,0,0,.549-2.961C817.177,82.142,816.925,81.115,817.645,80.153Z" transform="translate(-719.999 -69.367)" fill="#794f6a"/>
        <path id="Path_152" data-name="Path 152" d="M718.434,453.25s-4.784,2.518-2.266,3.021S718.434,453.25,718.434,453.25Z" transform="translate(-669.802 -259.368)" opacity="0.1"/>
        <path id="Path_153" data-name="Path 153" d="M877.89,463.2s2.644-3.525,5.539-1.385S877.89,463.2,877.89,463.2Z" transform="translate(-750.455 -263.281)" opacity="0.1"/>
        <path id="Path_154" data-name="Path 154" d="M890.09,469.253s3.3-1.133,5.312,0Z" transform="translate(-756.512 -267.064)" opacity="0.1"/>
        <path id="Path_155" data-name="Path 155" d="M760.64,356.25s7.049,6.8,9.315,7.049S760.64,356.25,760.64,356.25Z" transform="translate(-692.245 -211.211)" opacity="0.1"/>
        <path id="Path_156" data-name="Path 156" d="M758.707,178.085l-1.833,3.857-.927,9.064-.67,16.868s-1.259,14.351,0,16.365,3.439,13.933,3.021,15.443,5.539,15.61,6.632,16.451,4.95,1.007,7.13.584l3.988,3.792,11.289-10.418-6.969-5.287s1.6-2.689-2.85-5.625c0,0-2.014-3.359-2.1-5.121a37.419,37.419,0,0,0-1.848-10.574c-1.591-4.7-2.518-30.8-2.518-30.8S767.268,173.634,758.707,178.085Z" transform="translate(-689.305 -122.424)" opacity="0.1"/>
        <path id="Path_157" data-name="Path 157" d="M756.708,178.085l-1.833,3.857-.926,9.064-.67,16.868s-1.259,14.351,0,16.365,3.439,13.933,3.021,15.443,5.539,15.61,6.632,16.451,4.95,1.007,7.13.584l3.988,3.792,11.289-10.418L778.37,244.8s1.6-2.689-2.85-5.625c0,0-2.014-3.359-2.1-5.121a37.418,37.418,0,0,0-1.848-10.574c-1.591-4.7-2.518-30.8-2.518-30.8S765.268,173.634,756.708,178.085Z" transform="translate(-688.312 -122.424)" fill="#575988"/>
        <path id="Path_158" data-name="Path 158" d="M787.865,304.08c-.5.252-10.66,9.653-6.883,9.9S787.865,304.08,787.865,304.08Z" transform="translate(-701.927 -185.311)" opacity="0.1"/>
        <path id="Path_159" data-name="Path 159" d="M807.544,326.58s-14.517,1.511-13.762,7.387,11.078,11.536,14.351,9.753,6.042-3.484,6.042-3.484Z" transform="translate(-708.684 -196.481)" fill="#ffaab0"/>
        <path id="Path_160" data-name="Path 160" d="M861.965,182.312l2.1,4.028s2.18,17.2,0,23.832-7.467,21.9-7.467,21.9-6.38,11.163-6.546,11.667-12.256,17.956-14.436,18.883-6.294.438-6.546-.579-5.791,4.33-5.791,4.33-10.675-12.9-8.978-14.245,6.838-1.677,6.838-1.677.378,1.259.8-1.344,2.351-3.943,3.777-3.776.841-1.339,1.093-2.936S831,237.953,831,237.953s1.933-3.107,1.933-4.955,4.028-3.439,4.361-3.439.252-.755.252-3.439,2.014-7.472,2.014-7.472l1.244-15.106,2.186-15.358S848.958,169.472,861.965,182.312Z" transform="translate(-718.794 -122.623)" opacity="0.1"/>
        <path id="Path_161" data-name="Path 161" d="M854.823,234s.5,2.7,1.113,6.314c-1.007,1.808-1.808,3.248-1.868,3.419-.166.5-12.251,17.961-14.431,18.883s-6.294.438-6.546-.574c-.111-.453-1.264.347-2.518,1.38-1.561,1.289-3.278,2.946-3.278,2.946s-1.692-2.044-3.62-4.592c-2.921-3.847-6.38-8.837-5.363-9.648,1.7-1.344,6.843-1.677,6.843-1.677s.378,1.259.8-1.344,2.351-3.943,3.776-3.777.841-1.344,1.093-2.936,4.195-4.451,4.195-4.451,1.929-3.1,1.929-4.95,4.028-3.439,4.366-3.439.252-.755.252-3.444,2.014-7.467,2.014-7.467l1.244-15.106L847,188.179s5.962-18.716,18.968-5.876l.972,1.868c.126,1.314.121,2.16.121,2.16l-20.227,14.522Z" transform="translate(-720.786 -122.618)" opacity="0.1"/>
        <path id="Path_162" data-name="Path 162" d="M863.965,182.312l2.1,4.028s2.181,17.2,0,23.832-7.467,21.9-7.467,21.9-6.38,11.163-6.546,11.667-12.256,17.956-14.436,18.883-6.294.438-6.546-.579-5.791,4.33-5.791,4.33-10.675-12.9-8.978-14.245,6.838-1.677,6.838-1.677.378,1.259.8-1.344,2.351-3.943,3.776-3.776.841-1.339,1.093-2.936S833,237.953,833,237.953s1.934-3.107,1.934-4.955,4.028-3.439,4.361-3.439.252-.755.252-3.439,2.014-7.472,2.014-7.472l1.244-15.106,2.185-15.358S850.958,169.472,863.965,182.312Z" transform="translate(-719.787 -122.623)" fill="#575988"/>
        <path id="Path_163" data-name="Path 163" d="M836.81,320.68s.5,1.133,2.769,1.546S836.81,320.68,836.81,320.68Z" transform="translate(-730.06 -193.552)" opacity="0.1"/>
        <path id="Path_164" data-name="Path 164" d="M884.484,186.91c-.081.252-7.553,8.7-6.042,10.9S884.484,186.91,884.484,186.91Z" transform="translate(-750.629 -127.14)" opacity="0.1"/>
        <path id="Path_165" data-name="Path 165" d="M873.81,263.91s4.28,4.2,3.439,6.214S873.81,263.91,873.81,263.91Z" transform="translate(-748.43 -165.368)" opacity="0.1"/>
        <path id="Path_166" data-name="Path 166" d="M875.14,248.08c.252.418,9.487,1.511,9.99,5.035S875.14,248.08,875.14,248.08Z" transform="translate(-749.09 -157.509)" opacity="0.1"/>
        <g id="Group_613" data-name="Group 613" transform="translate(96.518 11.592)" opacity="0.1">
          <path id="Path_167" data-name="Path 167" d="M876.975,94.73a3.941,3.941,0,0,1,.076-.584,13.244,13.244,0,0,0,.242-2.915c-.04.639-.151,1.279-.242,1.908A5.651,5.651,0,0,0,876.975,94.73Z" transform="translate(-846.507 -91.23)"/>
          <path id="Path_168" data-name="Path 168" d="M818.011,94.055a3.518,3.518,0,0,0,0-1.123c-.06-.358-.126-.715-.161-1.073a6.8,6.8,0,0,0,.161,2.08Z" transform="translate(-817.156 -91.543)"/>
          <path id="Path_169" data-name="Path 169" d="M872.478,103.63a10.055,10.055,0,0,1-1.808,3.333,11.284,11.284,0,0,0-1.566,3.792,6.46,6.46,0,0,1-.534,1.833,1.571,1.571,0,0,1-1.561.881.188.188,0,0,0,0-.05,6.721,6.721,0,0,0,0,1.057,1.571,1.571,0,0,0,1.561-.881,6.459,6.459,0,0,0,.534-1.833,11.284,11.284,0,0,1,1.566-3.792c.836-1.294,2.014-2.6,1.843-4.134C872.533,103.766,872.488,103.7,872.478,103.63Z" transform="translate(-841.561 -97.386)"/>
          <path id="Path_170" data-name="Path 170" d="M842.01,105.173a8.874,8.874,0,0,0-1.546-3.872,7.732,7.732,0,0,0-2.014-2.518,3.79,3.79,0,0,1-.68-.5,3.562,3.562,0,0,1-.5-2.014,4.5,4.5,0,0,0-3.62-3.771,1.511,1.511,0,0,0-1.128.156c-.342.242-.5.69-.79.972a2.045,2.045,0,0,1-1.747.242c-1.319-.262-2.694-.745-3.973-.317-2.2.725-3.021,3.761-5.277,4.325a12.792,12.792,0,0,1-2.014.146,2.1,2.1,0,0,0-1.727.9,1.7,1.7,0,0,1-.438-.881,2.164,2.164,0,0,0,.438,1.888,2.094,2.094,0,0,1,1.727-.9,12.794,12.794,0,0,0,2.014-.146c2.246-.564,3.082-3.6,5.277-4.325,1.279-.428,2.654.055,3.973.317a2.044,2.044,0,0,0,1.747-.242c.312-.282.448-.73.79-.972a1.511,1.511,0,0,1,1.128-.156,4.5,4.5,0,0,1,3.62,3.771,3.587,3.587,0,0,0,.5,2.014,3.791,3.791,0,0,0,.68.5,7.732,7.732,0,0,1,2.014,2.518,8.876,8.876,0,0,1,1.51,3.756A6.6,6.6,0,0,0,842.01,105.173Z" transform="translate(-816.491 -91.834)"/>
        </g>
      </g>
      <ellipse id="Ellipse_31" data-name="Ellipse 31" cx="15.861" cy="15.861" rx="15.861" ry="15.861" transform="translate(74.77 36.438)" fill="#ea4334" opacity="0.1"/>
      <ellipse id="Ellipse_32" data-name="Ellipse 32" cx="9.819" cy="9.819" rx="9.819" ry="9.819" transform="translate(47.579 4.715)" fill="#ea4334" opacity="0.1"/>
      <ellipse id="Ellipse_33" data-name="Ellipse 33" cx="6.042" cy="6.042" rx="6.042" ry="6.042" transform="translate(0 30.395)" fill="#ea4334" opacity="0.1"/>
      <path id="Path_173" data-name="Path 173" d="M437.843,725.106a8.653,8.653,0,0,0-1.148,2.16c-.071.186-.141.4-.212.609a1.863,1.863,0,0,0-.4-.136,5.557,5.557,0,0,0-1.8-.156c0-.232.03-.5.035-.735.076-2.654-.237-6.355-2.769-4.789-2.427,1.511-.695,4.028.871,5.645l.4.393c-1.43,1.007-1.7,3.389-1.939,5.861s-2.336,5.181-3.731,6.717c-.141.156-.267.3-.393.428a5.086,5.086,0,0,0-4.054-1.042c-.055-.217-.116-.443-.186-.685-1.123-4.094-3.464-11.143-6.455-12.654l.393-.5c1.269-1.662,2.7-4.129.589-4.758s-2.3,2.14-2.185,4.215c0,.257.04.5.06.735a3.091,3.091,0,0,0-2.205,1.078l-.327-.383c-1.712-2.014-4.849-5.222-5.8-2.8-.881,2.256,1.878,5.181,3.822,6.878l.121.106c-1.3,5.3,4.391,9.612,7.457,11.5l.4.242c-4.23,4.985-6.843,14.326-6.843,14.326l11.848,2.115s7.85-6.778,6.843-13.137h.081c7.85-1.571,9.633-9.94,8.414-14.91a.323.323,0,0,0,.136-.06,8.913,8.913,0,0,0,3.636-2.744C444.7,725.554,440.1,722.11,437.843,725.106Z" transform="translate(-231.459 -387.753)" fill="#b5281b"/>
      <path id="Path_174" data-name="Path 174" d="M437.843,725.106a8.653,8.653,0,0,0-1.148,2.16c-.071.186-.141.4-.212.609a1.863,1.863,0,0,0-.4-.136,5.557,5.557,0,0,0-1.8-.156c0-.232.03-.5.035-.735.076-2.654-.237-6.355-2.769-4.789-2.427,1.511-.695,4.028.871,5.645l.4.393c-1.43,1.007-1.7,3.389-1.939,5.861s-2.336,5.181-3.731,6.717c-.141.156-.267.3-.393.428a5.086,5.086,0,0,0-4.054-1.042c-.055-.217-.116-.443-.186-.685-1.123-4.094-3.464-11.143-6.455-12.654l.393-.5c1.269-1.662,2.7-4.129.589-4.758s-2.3,2.14-2.185,4.215c0,.257.04.5.06.735a3.091,3.091,0,0,0-2.205,1.078l-.327-.383c-1.712-2.014-4.849-5.222-5.8-2.8-.881,2.256,1.878,5.181,3.822,6.878l.121.106c-1.3,5.3,4.391,9.612,7.457,11.5l.4.242c-4.23,4.985-6.843,14.326-6.843,14.326l11.848,2.115s7.85-6.778,6.843-13.137h.081c7.85-1.571,9.633-9.94,8.414-14.91a.323.323,0,0,0,.136-.06,8.913,8.913,0,0,0,3.636-2.744C444.7,725.554,440.1,722.11,437.843,725.106Z" transform="translate(-231.459 -387.753)" fill="#b5281b"/>
      <path id="Path_175" data-name="Path 175" d="M414.982,730.523l-1.385,4.028s-.77-.544-1.742-1.4c-1.944-1.7-4.7-4.622-3.822-6.878.952-2.422,4.089.775,5.8,2.8C414.524,729.9,414.982,730.523,414.982,730.523Z" transform="translate(-232.174 -389.756)" fill="#ea4334"/>
      <path id="Path_176" data-name="Path 176" d="M426.2,726.223a19.553,19.553,0,0,1-1.349,1.586,21.243,21.243,0,0,1-.247-2.13c-.116-2.075.106-4.829,2.185-4.215S427.471,724.551,426.2,726.223Z" transform="translate(-240.473 -387.756)" fill="#ea4334"/>
      <path id="Path_177" data-name="Path 177" d="M459.35,727.176c-.04,1.334-.171,2.4-.171,2.4a17.123,17.123,0,0,1-1.727-1.516c-1.566-1.627-3.3-4.134-.871-5.645C459.114,720.821,459.426,724.532,459.35,727.176Z" transform="translate(-255.761 -388.08)" fill="#ea4334"/>
      <path id="Path_178" data-name="Path 178" d="M473.126,731.143a8.914,8.914,0,0,1-3.635,2.744,9.764,9.764,0,0,1-1.219.443l-1.631-2.291a16.637,16.637,0,0,1,.675-2.226,8.645,8.645,0,0,1,1.148-2.16C470.719,724.657,475.321,728.1,473.126,731.143Z" transform="translate(-261.354 -390.3)" fill="#ea4334"/>
      <path id="Path_179" data-name="Path 179" d="M417.769,732.74c.69.8,1.148,1.425,1.148,1.425l-1.385,4.028s-.77-.544-1.742-1.4a7.932,7.932,0,0,1,1.561-3.56C417.487,733.072,417.633,732.9,417.769,732.74Z" transform="translate(-236.108 -393.398)" opacity="0.1"/>
      <path id="Path_180" data-name="Path 180" d="M426.226,730.464a19.555,19.555,0,0,1-1.349,1.586,21.283,21.283,0,0,1-.247-2.13A2.748,2.748,0,0,1,426.226,730.464Z" transform="translate(-240.497 -391.998)" opacity="0.1"/>
      <path id="Path_181" data-name="Path 181" d="M428.581,747.243l-3.449,1.511s-.75-.362-1.833-1.032c-3.62-2.231-10.9-7.835-6.017-14.441s8.948,5.242,10.549,11.038C428.319,746.055,428.581,747.243,428.581,747.243Z" transform="translate(-236.039 -392.699)" fill="#ea4334"/>
      <path id="Path_182" data-name="Path 182" d="M459.5,733.156a2.815,2.815,0,0,1,1.9-.856c-.04,1.334-.171,2.4-.171,2.4A17.131,17.131,0,0,1,459.5,733.156Z" transform="translate(-257.809 -393.179)" opacity="0.1"/>
      <path id="Path_183" data-name="Path 183" d="M469.49,737.154a9.775,9.775,0,0,1-1.219.443l-1.631-2.291a16.643,16.643,0,0,1,.675-2.226C468.367,733.7,469.143,735.225,469.49,737.154Z" transform="translate(-261.354 -393.566)" opacity="0.1"/>
      <path id="Path_184" data-name="Path 184" d="M448.493,752.41l-.579.1c-11.546,1.757-3.807-4.476-3.807-4.476s.5-.5,1.224-1.259c1.395-1.536,3.49-4.23,3.731-6.717.362-3.741.78-7.251,5.2-6.219C458.593,734.837,459.409,750.22,448.493,752.41Z" transform="translate(-248.906 -393.853)" fill="#ea4334"/>
      <rect id="Rectangle_879" data-name="Rectangle 879" width="22.06" height="5.801" transform="translate(177.315 387.304)" fill="#d4dfec"/>
      <rect id="Rectangle_880" data-name="Rectangle 880" width="28.822" height="20.242" transform="translate(173.81 368.452)" fill="#d4dfec"/>
      <rect id="Rectangle_881" data-name="Rectangle 881" width="22.06" height="5.801" transform="translate(177.315 387.304)" opacity="0.1"/>
      <rect id="Rectangle_882" data-name="Rectangle 882" width="28.822" height="20.242" transform="translate(173.81 368.452)" opacity="0.1"/>
      <rect id="Rectangle_883" data-name="Rectangle 883" width="22.06" height="5.801" transform="translate(178.765 387.304)" fill="#d4dfec"/>
      <path id="Path_185" data-name="Path 185" d="M435.372,757.13c.5,1.732.75,2.92.75,2.92l-3.449,1.511s-.75-.363-1.833-1.032A8.853,8.853,0,0,1,435.372,757.13Z" transform="translate(-243.58 -405.507)" opacity="0.1"/>
      <path id="Path_186" data-name="Path 186" d="M448.493,765.345l-.579.1c-11.546,1.757-3.807-4.476-3.807-4.476s.5-.5,1.224-1.259A7.646,7.646,0,0,1,448.493,765.345Z" transform="translate(-248.906 -406.787)" opacity="0.1"/>
      <path id="Path_187" data-name="Path 187" d="M418,775.682s6.465-23.163,15.534-16.012-3.686,18.127-3.686,18.127Z" transform="translate(-237.205 -406.087)" fill="#ea4334"/>
      <ellipse id="Ellipse_34" data-name="Ellipse 34" cx="0.725" cy="0.725" rx="0.725" ry="0.725" transform="translate(183.357 343.491)" opacity="0.1"/>
      <ellipse id="Ellipse_35" data-name="Ellipse 35" cx="0.725" cy="0.725" rx="0.725" ry="0.725" transform="translate(183.297 346.875)" opacity="0.1"/>
      <ellipse id="Ellipse_36" data-name="Ellipse 36" cx="0.725" cy="0.725" rx="0.725" ry="0.725" transform="translate(204.325 344.156)" opacity="0.1"/>
      <ellipse id="Ellipse_37" data-name="Ellipse 37" cx="0.725" cy="0.725" rx="0.725" ry="0.725" transform="translate(187.406 361.503)" opacity="0.1"/>
      <ellipse id="Ellipse_38" data-name="Ellipse 38" cx="0.725" cy="0.725" rx="0.725" ry="0.725" transform="translate(202.814 349.776)" opacity="0.1"/>
      <ellipse id="Ellipse_39" data-name="Ellipse 39" cx="0.725" cy="0.725" rx="0.725" ry="0.725" transform="translate(195.322 357.273)" opacity="0.1"/>
      <ellipse id="Ellipse_40" data-name="Ellipse 40" cx="0.725" cy="0.725" rx="0.725" ry="0.725" transform="translate(185.835 344.942)" opacity="0.1"/>
      <ellipse id="Ellipse_41" data-name="Ellipse 41" cx="0.725" cy="0.725" rx="0.725" ry="0.725" transform="translate(202.331 346.331)" opacity="0.1"/>
      <ellipse id="Ellipse_42" data-name="Ellipse 42" cx="0.725" cy="0.725" rx="0.725" ry="0.725" transform="translate(199.853 351.951)" opacity="0.1"/>
      <ellipse id="Ellipse_43" data-name="Ellipse 43" cx="0.725" cy="0.725" rx="0.725" ry="0.725" transform="translate(192.24 360.959)" opacity="0.1"/>
      <ellipse id="Ellipse_44" data-name="Ellipse 44" cx="0.725" cy="0.725" rx="0.725" ry="0.725" transform="translate(190.669 357.394)" opacity="0.1"/>
      <ellipse id="Ellipse_45" data-name="Ellipse 45" cx="0.725" cy="0.725" rx="0.725" ry="0.725" transform="translate(186.923 349.353)" opacity="0.1"/>
      <rect id="Rectangle_884" data-name="Rectangle 884" width="22.06" height="2.12" transform="translate(178.765 387.304)" opacity="0.1"/>
      <rect id="Rectangle_885" data-name="Rectangle 885" width="28.822" height="20.242" transform="translate(175.261 368.452)" fill="#d4dfec"/>
      <ellipse id="Ellipse_46" data-name="Ellipse 46" cx="0.725" cy="0.725" rx="0.725" ry="0.725" transform="translate(193.207 364.222)" opacity="0.1"/>
      <ellipse id="Ellipse_47" data-name="Ellipse 47" cx="0.725" cy="0.725" rx="0.725" ry="0.725" transform="translate(188.856 365.128)" opacity="0.1"/>
    </g>
    <g id="Group_619" data-name="Group 619" transform="translate(545.346 1499)">
      <path id="Path_315" data-name="Path 315" d="M566.36,269.434c-18.473,29.809-15.011,70.419-6.9,102.438,2.714,10.721,5.842,22.039,3.521,34.037C560.145,420.58,549.8,432.1,539.321,438.7c-19.1,12-40.9,11.665-56.778-.879-13.711-10.836-22.741-29.734-36.741-39.989-23.408-17.165-55.553-6.762-83.463,9.28-19.738,11.322-41.463,25.73-59.706,17.572-12.835-5.728-20.839-21.89-24.574-39.477-1.8-8.491-2.894-17.766-7.027-24.235a27.242,27.242,0,0,0-9.348-8.53c-32-19.247-75.3-3.155-106.155-24.95-20.843-14.716-32.692-45.111-36.587-77.613s-.692-67.279,3.317-101.519c2.854-24.344,6.714-50.387,19.524-70.185,13.552-20.941,34.913-30.306,53.481-28.319s34.689,13.722,48.585,28.065c17.367,17.925,33.031,40.818,55.508,46.6,15.31,3.94,32.03-.621,48.311-3.2,27.184-4.312,53.989-3.075,80.6-1.456,25.48,1.55,51.115,3.478,74.857,12.42,16.8,6.334,29.694,19.52,45.372,28.095,10.22,5.589,21.75,6.3,31.273,13.752,11.729,9.181,21.879,26.128,17.183,47.55C592.478,242.064,576.162,253.615,566.36,269.434Z" transform="translate(-102.151 -49.595)" fill="#ea4334" opacity="0.1"/>
      <path id="Path_316" data-name="Path 316" d="M781.67,252.7s50.3-42.15,61.489-63.4a303.6,303.6,0,0,1,25.425-39.565" transform="translate(-501.565 -78.784)" fill="none" stroke="#535461" stroke-miterlimit="10" stroke-width="2"/>
      <path id="Path_317" data-name="Path 317" d="M920.97,240.176l-21.76-4.906S904.345,258.22,920.97,240.176Z" transform="translate(-560.564 -121.774)" fill="#6c63ff"/>
      <path id="Path_318" data-name="Path 318" d="M872.823,198.08l12.521,18.752S860.865,218.6,872.823,198.08Z" transform="translate(-545.667 -103.063)" fill="#ea4334"/>
      <path id="Path_319" data-name="Path 319" d="M940.047,206.216,920.16,202.73S932.651,221.731,940.047,206.216Z" transform="translate(-571.08 -105.397)" fill="#6c63ff"/>
      <path id="Path_320" data-name="Path 320" d="M899.083,176.08l9.8,12.83S891.538,190.553,899.083,176.08Z" transform="translate(-559.546 -91.989)" fill="#ea4334"/>
      <path id="Path_321" data-name="Path 321" d="M940.81,170.95s16.934.807,18.926,2.426-2.525,11.107-8.965,9.558S940.81,170.95,940.81,170.95Z" transform="translate(-581.445 -89.407)" fill="#ea4334"/>
      <path id="Path_322" data-name="Path 322" d="M920.866,140.56s6.918,12.606,6.659,15.006-10.544,5.1-12.621-3.984S920.866,140.56,920.866,140.56Z" transform="translate(-568.27 -74.116)" fill="#ea4334"/>
      <ellipse id="Ellipse_63" data-name="Ellipse 63" cx="4.709" cy="4.709" rx="4.709" ry="4.709" transform="translate(363.711 77.723) rotate(-72.474)" fill="#ffd037"/>
      <ellipse id="Ellipse_64" data-name="Ellipse 64" cx="4.709" cy="4.709" rx="4.709" ry="4.709" transform="translate(356.34 73.053) rotate(-72.474)" fill="#ffd037"/>
      <path id="Path_323" data-name="Path 323" d="M342.472,567.11s8.073-24.016-43.106-52.968c0,0-51.967-15.156-46.652-67.2,0,0-59.906,43.888-19.369,99.795s75.524,43.7,75.524,43.7Z" transform="translate(-219.267 -228.72)" fill="#ea4334"/>
      <path id="Path_324" data-name="Path 324" d="M353.674,577.957s-24.972-26.989-48.909-37.424a47.669,47.669,0,0,1-13-8.661,59.51,59.51,0,0,1-17.98-55.284l5.753-29.649" transform="translate(-246.074 -228.72)" fill="none" stroke="#535461" stroke-miterlimit="10" stroke-width="2"/>
      <rect id="Rectangle_897" data-name="Rectangle 897" width="284.193" height="328.985" transform="translate(45.314 37.844)" fill="url(#linear-gradient)"/>
      <rect id="Rectangle_898" data-name="Rectangle 898" width="277.574" height="321.295" transform="translate(48.626 41.684)" fill="#f7f7fd"/>
      <rect id="Rectangle_899" data-name="Rectangle 899" width="70.17" height="5.588" transform="translate(65.39 77.816)" fill="#e2e2ec"/>
      <rect id="Rectangle_900" data-name="Rectangle 900" width="119.846" height="5.588" transform="translate(65.39 91.443)" fill="#e2e2ec"/>
      <rect id="Rectangle_901" data-name="Rectangle 901" width="49.8" height="42.972" transform="translate(263.107 72.471)" fill="#fff"/>
      <path id="Path_325" data-name="Path 325" d="M796.805,152.718v42.474H747.5V152.718h49.307m.5-.5H747v43.47h50.3Z" transform="translate(-484.162 -79.998)" fill="#e2e2ec"/>
      <rect id="Rectangle_902" data-name="Rectangle 902" width="49.8" height="42.972" transform="translate(212.809 72.471)" fill="#fff"/>
      <path id="Path_326" data-name="Path 326" d="M695.805,152.718v42.474H646.5V152.718h49.307m.5-.5H646v43.47h50.3Z" transform="translate(-433.465 -79.998)" fill="#e2e2ec"/>
      <rect id="Rectangle_903" data-name="Rectangle 903" width="49.8" height="42.972" transform="translate(263.107 115.82)" fill="#fff"/>
      <path id="Path_327" data-name="Path 327" d="M796.805,240v42.474H747.5V240h49.307m.5-.5H747v43.47h50.3Z" transform="translate(-484.162 -123.929)" fill="#e2e2ec"/>
      <rect id="Rectangle_904" data-name="Rectangle 904" width="49.8" height="42.972" transform="translate(212.809 115.82)" fill="#fff"/>
      <path id="Path_328" data-name="Path 328" d="M695.805,240v42.474H646.5V240h49.307m.5-.5H646v43.47h50.3Z" transform="translate(-433.465 -123.929)" fill="#e2e2ec"/>
      <rect id="Rectangle_905" data-name="Rectangle 905" width="49.8" height="42.972" transform="translate(162.51 115.82)" fill="#fff"/>
      <path id="Path_329" data-name="Path 329" d="M594.855,240v42.474H545.548V240h49.307m.5-.5h-50.3v43.47h50.3Z" transform="translate(-382.794 -123.929)" fill="#e2e2ec"/>
      <rect id="Rectangle_906" data-name="Rectangle 906" width="49.8" height="42.972" transform="translate(112.212 115.82)" fill="#fff"/>
      <path id="Path_330" data-name="Path 330" d="M493.865,240v42.474H444.558V240h49.307m.5-.5h-50.3v43.47h50.3Z" transform="translate(-332.102 -123.929)" fill="#e2e2ec"/>
      <rect id="Rectangle_907" data-name="Rectangle 907" width="49.8" height="42.972" transform="translate(61.914 115.82)" fill="#fff"/>
      <path id="Path_331" data-name="Path 331" d="M392.875,240v42.474H343.568V240h49.307m.5-.5h-50.3v43.47h50.3Z" transform="translate(-281.41 -123.929)" fill="#e2e2ec"/>
      <rect id="Rectangle_908" data-name="Rectangle 908" width="49.8" height="42.972" transform="translate(263.107 159.164)" fill="#fff"/>
      <path id="Path_332" data-name="Path 332" d="M796.805,327.278v42.474H747.5V327.278h49.307m.5-.5H747v43.47h50.3Z" transform="translate(-484.162 -167.86)" fill="#e2e2ec"/>
      <rect id="Rectangle_909" data-name="Rectangle 909" width="49.8" height="42.972" transform="translate(212.809 159.164)" fill="#fff"/>
      <path id="Path_333" data-name="Path 333" d="M695.805,327.278v42.474H646.5V327.278h49.307m.5-.5H646v43.47h50.3Z" transform="translate(-433.465 -167.86)" fill="#e2e2ec"/>
      <rect id="Rectangle_910" data-name="Rectangle 910" width="49.8" height="42.972" transform="translate(162.51 159.164)" fill="#fff"/>
      <path id="Path_334" data-name="Path 334" d="M594.855,327.278v42.474H545.548V327.278h49.307m.5-.5h-50.3v43.47h50.3Z" transform="translate(-382.794 -167.86)" fill="#e2e2ec"/>
      <rect id="Rectangle_911" data-name="Rectangle 911" width="49.8" height="42.972" transform="translate(112.212 159.164)" fill="#fff"/>
      <path id="Path_335" data-name="Path 335" d="M493.865,327.278v42.474H444.558V327.278h49.307m.5-.5h-50.3v43.47h50.3Z" transform="translate(-332.102 -167.86)" fill="#e2e2ec"/>
      <rect id="Rectangle_912" data-name="Rectangle 912" width="49.8" height="42.972" transform="translate(61.914 159.164)" fill="#fff"/>
      <path id="Path_336" data-name="Path 336" d="M392.875,327.278v42.474H343.568V327.278h49.307m.5-.5h-50.3v43.47h50.3Z" transform="translate(-281.41 -167.86)" fill="#e2e2ec"/>
      <rect id="Rectangle_913" data-name="Rectangle 913" width="49.8" height="42.972" transform="translate(263.107 202.513)" fill="#fff"/>
      <path id="Path_337" data-name="Path 337" d="M796.805,414.548v42.474H747.5V414.548h49.307m.5-.5H747v43.47h50.3Z" transform="translate(-484.162 -211.786)" fill="#e2e2ec"/>
      <rect id="Rectangle_914" data-name="Rectangle 914" width="49.8" height="42.972" transform="translate(212.809 202.513)" fill="#fff"/>
      <path id="Path_338" data-name="Path 338" d="M695.805,414.548v42.474H646.5V414.548h49.307m.5-.5H646v43.47h50.3Z" transform="translate(-433.465 -211.786)" fill="#e2e2ec"/>
      <rect id="Rectangle_915" data-name="Rectangle 915" width="49.8" height="42.972" transform="translate(162.51 202.513)" fill="#fff"/>
      <path id="Path_339" data-name="Path 339" d="M594.855,414.548v42.474H545.548V414.548h49.307m.5-.5h-50.3v43.47h50.3Z" transform="translate(-382.794 -211.786)" fill="#e2e2ec"/>
      <rect id="Rectangle_916" data-name="Rectangle 916" width="49.8" height="42.972" transform="translate(112.212 202.513)" fill="#fff"/>
      <path id="Path_340" data-name="Path 340" d="M493.865,414.548v42.474H444.558V414.548h49.307m.5-.5h-50.3v43.47h50.3Z" transform="translate(-332.102 -211.786)" fill="#e2e2ec"/>
      <rect id="Rectangle_917" data-name="Rectangle 917" width="49.8" height="42.972" transform="translate(61.914 202.513)" fill="#fff"/>
      <path id="Path_341" data-name="Path 341" d="M392.875,414.548v42.474H343.568V414.548h49.307m.5-.5h-50.3v43.47h50.3Z" transform="translate(-281.41 -211.786)" fill="#e2e2ec"/>
      <rect id="Rectangle_918" data-name="Rectangle 918" width="49.8" height="42.972" transform="translate(263.107 245.857)" fill="#fff"/>
      <path id="Path_342" data-name="Path 342" d="M796.805,501.828V544.3H747.5V501.828h49.307m.5-.5H747v43.465h50.3Z" transform="translate(-484.162 -255.717)" fill="#e2e2ec"/>
      <rect id="Rectangle_919" data-name="Rectangle 919" width="49.8" height="42.972" transform="translate(212.809 245.857)" fill="#fff"/>
      <path id="Path_343" data-name="Path 343" d="M695.805,501.828V544.3H646.5V501.828h49.307m.5-.5H646v43.465h50.3Z" transform="translate(-433.465 -255.717)" fill="#e2e2ec"/>
      <rect id="Rectangle_920" data-name="Rectangle 920" width="49.8" height="42.972" transform="translate(162.51 245.857)" fill="#fff"/>
      <path id="Path_344" data-name="Path 344" d="M594.855,501.828V544.3H545.548V501.828h49.307m.5-.5h-50.3v43.465h50.3Z" transform="translate(-382.794 -255.717)" fill="#e2e2ec"/>
      <rect id="Rectangle_921" data-name="Rectangle 921" width="49.8" height="42.972" transform="translate(112.212 245.857)" fill="#fff"/>
      <path id="Path_345" data-name="Path 345" d="M493.865,501.828V544.3H444.558V501.828h49.307m.5-.5h-50.3v43.465h50.3Z" transform="translate(-332.102 -255.717)" fill="#e2e2ec"/>
      <rect id="Rectangle_922" data-name="Rectangle 922" width="49.8" height="42.972" transform="translate(61.914 245.857)" fill="#fff"/>
      <path id="Path_346" data-name="Path 346" d="M392.875,501.828V544.3H343.568V501.828h49.307m.5-.5h-50.3v43.465h50.3Z" transform="translate(-281.41 -255.717)" fill="#e2e2ec"/>
      <rect id="Rectangle_923" data-name="Rectangle 923" width="49.8" height="42.972" transform="translate(263.107 289.207)" fill="#fff"/>
      <path id="Path_347" data-name="Path 347" d="M796.805,589.1v42.474H747.5V589.1h49.307m.5-.5H747v43.47h50.3Z" transform="translate(-484.162 -299.643)" fill="#e2e2ec"/>
      <rect id="Rectangle_924" data-name="Rectangle 924" width="49.8" height="42.972" transform="translate(212.809 289.207)" fill="#fff"/>
      <path id="Path_348" data-name="Path 348" d="M695.805,589.1v42.474H646.5V589.1h49.307m.5-.5H646v43.47h50.3Z" transform="translate(-433.465 -299.643)" fill="#e2e2ec"/>
      <rect id="Rectangle_925" data-name="Rectangle 925" width="49.8" height="42.972" transform="translate(162.51 289.207)" fill="#fff"/>
      <path id="Path_349" data-name="Path 349" d="M594.855,589.1v42.474H545.548V589.1h49.307m.5-.5h-50.3v43.47h50.3Z" transform="translate(-382.794 -299.643)" fill="#e2e2ec"/>
      <rect id="Rectangle_926" data-name="Rectangle 926" width="49.8" height="42.972" transform="translate(112.212 289.207)" fill="#fff"/>
      <path id="Path_350" data-name="Path 350" d="M493.865,589.1v42.474H444.558V589.1h49.307m.5-.5h-50.3v43.47h50.3Z" transform="translate(-332.102 -299.643)" fill="#e2e2ec"/>
      <rect id="Rectangle_927" data-name="Rectangle 927" width="49.8" height="42.972" transform="translate(61.914 289.207)" fill="#fff"/>
      <path id="Path_351" data-name="Path 351" d="M392.875,589.1v42.474H343.568V589.1h49.307m.5-.5h-50.3v43.47h50.3Z" transform="translate(-281.41 -299.643)" fill="#e2e2ec"/>
      <path id="Path_352" data-name="Path 352" d="M522.537,741.859a8,8,0,0,0,3.178-3.91,3.307,3.307,0,0,0-2.221-3.984c-2.037-.638-4.214.5-5.867,1.679s-3.541,2.49-5.7,2.246a6.356,6.356,0,0,0,2.685-6.629,2.568,2.568,0,0,0-.747-1.345c-1.131-1-3.183-.563-4.537.214-4.308,2.49-5.508,7.247-5.533,11.545-.433-1.549-.07-3.163-.08-4.756a4.525,4.525,0,0,0-2.186-4.209,7.828,7.828,0,0,0-3.337-.643c-1.937-.06-4.094.1-5.414,1.255-1.644,1.434-1.215,3.845.214,5.424s3.606,2.57,5.6,3.661a11.439,11.439,0,0,1,3.984,3.118,2.82,2.82,0,0,1,.3.558h12.138A34.884,34.884,0,0,0,522.537,741.859Z" transform="translate(-356.023 -370.468)" fill="#ea4334"/>
      <ellipse id="Ellipse_65" data-name="Ellipse 65" cx="2.839" cy="2.839" rx="2.839" ry="2.839" transform="translate(65.644 119.537)" fill="#ea4334"/>
      <ellipse id="Ellipse_66" data-name="Ellipse 66" cx="2.839" cy="2.839" rx="2.839" ry="2.839" transform="translate(72.737 119.537)" fill="#ffd037"/>
      <ellipse id="Ellipse_67" data-name="Ellipse 67" cx="2.839" cy="2.839" rx="2.839" ry="2.839" transform="translate(165.892 161.516)" fill="#ea4334"/>
      <ellipse id="Ellipse_68" data-name="Ellipse 68" cx="2.839" cy="2.839" rx="2.839" ry="2.839" transform="translate(172.989 161.516)" fill="#ea4334"/>
      <ellipse id="Ellipse_69" data-name="Ellipse 69" cx="2.839" cy="2.839" rx="2.839" ry="2.839" transform="translate(317.683 242.644)" fill="#ea4334"/>
      <ellipse id="Ellipse_70" data-name="Ellipse 70" cx="2.839" cy="2.839" rx="2.839" ry="2.839" transform="translate(319.103 239.345)" fill="#ea4334"/>
      <ellipse id="Ellipse_71" data-name="Ellipse 71" cx="2.839" cy="2.839" rx="2.839" ry="2.839" transform="translate(320.522 236.513)" fill="#ea4334"/>
      <ellipse id="Ellipse_72" data-name="Ellipse 72" cx="2.839" cy="2.839" rx="2.839" ry="2.839" transform="translate(267.559 119.537)" fill="#ea4334"/>
      <ellipse id="Ellipse_73" data-name="Ellipse 73" cx="2.839" cy="2.839" rx="2.839" ry="2.839" transform="translate(274.652 119.537)" fill="#ea4334"/>
      <ellipse id="Ellipse_74" data-name="Ellipse 74" cx="2.839" cy="2.839" rx="2.839" ry="2.839" transform="translate(281.749 119.537)" fill="#ea4334"/>
      <ellipse id="Ellipse_75" data-name="Ellipse 75" cx="2.839" cy="2.839" rx="2.839" ry="2.839" transform="translate(288.841 119.537)" fill="#ea4334"/>
      <ellipse id="Ellipse_76" data-name="Ellipse 76" cx="2.839" cy="2.839" rx="2.839" ry="2.839" transform="translate(267.559 207.267)" fill="#ea4334"/>
      <ellipse id="Ellipse_77" data-name="Ellipse 77" cx="2.839" cy="2.839" rx="2.839" ry="2.839" transform="translate(274.652 207.267)" fill="#ea4334"/>
      <ellipse id="Ellipse_78" data-name="Ellipse 78" cx="2.839" cy="2.839" rx="2.839" ry="2.839" transform="translate(281.749 207.267)" fill="#ea4334"/>
      <ellipse id="Ellipse_79" data-name="Ellipse 79" cx="2.839" cy="2.839" rx="2.839" ry="2.839" transform="translate(288.841 207.267)" fill="#ea4334"/>
      <ellipse id="Ellipse_80" data-name="Ellipse 80" cx="2.839" cy="2.839" rx="2.839" ry="2.839" transform="translate(115.768 161.516)" fill="#ffd037"/>
      <ellipse id="Ellipse_81" data-name="Ellipse 81" cx="2.839" cy="2.839" rx="2.839" ry="2.839" transform="translate(65.644 204.44)" fill="#ea4334"/>
      <path id="Path_353" data-name="Path 353" d="M856.2,354.479c3.113,1.838,7.969,3.033,14.12-.916l-.06,8.746c.438,5.977,7.854,27.846,7.854,27.846l5.229,17.98a140.689,140.689,0,0,1,5.748,39.112c0,4.388.408,8.91,1.668,12.312,2.784,7.526-1.1,17.223-2.779,20.833a87.491,87.491,0,0,1-8.631,2.43,5.876,5.876,0,0,0-.772.234l-.035-.05s-7.849,3.113-11.336,2.685c-2.6-.319-4.228,2.923-2.192,5.309a15.934,15.934,0,0,1-5.224.687c-3.486-.428-5.235,5.568,1.31,7.282s43.624,0,43.624,0a5.259,5.259,0,0,0,2.789-5.807c2.849-.11,4.627-.194,4.627-.194s6.544-2.988,0-11.142l-.349.264-1.4-4.119v-5.563s8.288-39.844,5.673-44.556-3.925-28.7-3.925-28.7l.886-26.133c2.366-4.881,3.576-12.531,4.189-18.513a39.278,39.278,0,0,0,1.674-8.781c.1-1.4.189-2.879.244-4.408a29.547,29.547,0,0,0-1.624-9.856,97.818,97.818,0,0,1,9.881-12.407,12.73,12.73,0,0,0,3.925-11.141l-2.182-14.568L923.9,268.5c.658-6.893-.782-10.863-2.371-13.1.378-2.226.732-4.453,1-6.689A85.6,85.6,0,0,0,921,219.577c-.757-3.332-1.788-6.749-4.124-9.274-2.645-2.859-6.938-4.6-7.924-8.347a24.244,24.244,0,0,0-.608-2.819c-.956-2.45-3.984-3.342-6.634-3.661-4.721-.573-11.55-1-16.087.847-3.168,1.295-7.531,4.861-9.264,8.686a6.53,6.53,0,0,0-.284,7.172,16.432,16.432,0,0,0-1.016,5.723,16.715,16.715,0,0,0,10.668,15.5c.1.329.2.652.279.971a16.632,16.632,0,0,1,.428,2.336c-.085,1.494-.179,3.033-.249,4.552q-.075.314-.159.618a112.242,112.242,0,0,0-10.957,5.588c2.62,3.855-.438,20.136-.438,20.136-6.544,3.855-13.089,13.711-6.106,23.991s3.053,21.416,3.053,21.416l-1.091,16.75h0v.03l-.219,3.352h.085l-.085,1.27.189.035v1.365c-3.063,1.125-7.54,3.4-10.21,7.6a26.8,26.8,0,0,1-4.567,5.6,3.367,3.367,0,0,0,.523,5.464Zm52.674-44.506a15.939,15.939,0,0,1,1.549-8.427q1.539.03,3.083.035c.1.722.229,1.409.378,2.037.887,3.775-2.654,5.583-5.015,6.35Z" transform="translate(-538.128 -102.252)" fill="url(#linear-gradient-4)"/>
      <path id="Path_354" data-name="Path 354" d="M930.253,755.887l1.679,5.035-5.479,5.479L908.4,770.6l-13.014-1.26.842-4.617h0a5.568,5.568,0,0,1,4.134-4.069c5.349-1.255,15.549-4.124,17.691-8.1Z" transform="translate(-558.647 -382.12)" fill="#db8b8b"/>
      <path id="Path_355" data-name="Path 355" d="M930.253,755.887l1.679,5.035-5.479,5.479L908.4,770.6l-13.014-1.26.842-4.617h0a5.568,5.568,0,0,1,4.134-4.069c5.349-1.255,15.549-4.124,17.691-8.1Z" transform="translate(-558.647 -382.12)" opacity="0.1"/>
      <path id="Path_356" data-name="Path 356" d="M889.848,775.232l2.52-3.357-2.52-3.89s-7.555,3.048-10.912,2.63-5.035,5.478,1.26,7.137,41.976,0,41.976,0,6.3-2.938,0-10.912l-5.479,4.2s-9.234,5.035-13.851,4.2Z" transform="translate(-548.886 -389.293)" fill="#2e3037"/>
      <path id="Path_357" data-name="Path 357" d="M881.1,781.064l13.014,1.26,18.049-4.2,5.479-5.479-.443-1.335-.628-1.872-.628-1.823-12.172-3.357a7.538,7.538,0,0,1-2.49,2.49c-3.955,2.7-11.057,4.657-15.226,5.633a4.321,4.321,0,0,0-.5.154,5.549,5.549,0,0,0-3.616,3.915Z" transform="translate(-551.474 -387.998)" fill="#db8b8b"/>
      <path id="Path_358" data-name="Path 358" d="M881.1,788.172l13.014,1.26,18.049-4.2,5.479-5.478-.443-1.335-5.01,3.855s-9.234,5.035-13.851,4.2H885.3l2.52-3.357-2.261-3.486a5.549,5.549,0,0,0-3.616,3.915Z" transform="translate(-551.474 -395.106)" opacity="0.1"/>
      <path id="Path_359" data-name="Path 359" d="M875.518,787.032l2.52-3.357-2.52-3.89s-7.555,3.048-10.912,2.63-5.035,5.478,1.26,7.137,41.976,0,41.976,0,6.3-2.939,0-10.912l-5.478,4.2s-9.234,5.035-13.851,4.2Z" transform="translate(-541.693 -395.216)" fill="#2e3037"/>
      <path id="Path_360" data-name="Path 360" d="M910.6,284.243s20.151,2.1,17.213-6.3a15.112,15.112,0,0,1-.622-7.411A20.544,20.544,0,0,1,930.751,262l-18.891,2.939A23.655,23.655,0,0,1,914.42,271C916.671,279.9,910.6,284.243,910.6,284.243Z" transform="translate(-566.281 -135.234)" fill="#db8b8b"/>
      <path id="Path_361" data-name="Path 361" d="M955.15,498.82s-.419,18.049-4.617,26.865l-.842,25.6s1.26,23.508,3.78,28.125-5.479,43.654-5.479,43.654v6.719s-13.447,5.035-17.213-.842l3.78-49.954-1.678-69.259Z" transform="translate(-576.411 -254.761)" fill="#474463"/>
      <path id="Path_362" data-name="Path 362" d="M955.15,498.82s-.419,18.049-4.617,26.865l-.842,25.6s1.26,23.508,3.78,28.125-5.479,43.654-5.479,43.654v6.719s-13.447,5.035-17.213-.842l3.78-49.954-1.678-69.259Z" transform="translate(-576.411 -254.761)" opacity="0.1"/>
      <path id="Path_363" data-name="Path 363" d="M977.536,382.51l2.52,6.719,2.1,14.274a12.626,12.626,0,0,1-3.78,10.912c-5.035,5.035-11.754,15.529-11.754,15.529l-7.969-23.906s7.969-1.26,6.719-6.719-.846-15.569-.846-15.569Z" transform="translate(-590.4 -195.917)" fill="#db3f31"/>
      <path id="Path_365" data-name="Path 365" d="M921.66,766.755c5.384,8.467,13.766,3.671,15.25,2.714l-.607-1.853L924.13,764.26A7.54,7.54,0,0,1,921.66,766.755Z" transform="translate(-571.833 -387.998)" opacity="0.1"/>
      <path id="Path_366" data-name="Path 366" d="M887.85,484.713c.418,5.877,7.555,27.283,7.555,27.283l5.035,17.616a140.177,140.177,0,0,1,5.533,38.32c0,4.3.394,8.731,1.609,12.063,3.357,9.234-3.357,21.83-3.357,21.83,5.877,10.494,15.938,3.357,15.938,3.357v-6.714s7.969-36.522,5.877-43.654-2.938-26.446-2.938-26.446V493.5a39.534,39.534,0,0,0,11.52-25.062c.1-1.374.179-2.819.234-4.318.339-9.463-6.136-20.574-8.666-24.529-.608-.956-1-1.494-1-1.494l-37.065,14.7-.084.035v4.607Z" transform="translate(-554.862 -224.282)" fill="#474463"/>
      <path id="Path_367" data-name="Path 367" d="M913.13,264.933A23.651,23.651,0,0,1,915.69,271a16.436,16.436,0,0,0,12.77-.468A20.545,20.545,0,0,1,932.021,262Z" transform="translate(-567.551 -135.223)" opacity="0.1"/>
      <ellipse id="Ellipse_82" data-name="Ellipse 82" cx="16.371" cy="16.371" rx="16.371" ry="16.371" transform="translate(337.605 103.302)" fill="#db8b8b"/>
      <path id="Path_368" data-name="Path 368" d="M887.85,457.449l.179.035c17.6,3.621,39.7-14.727,39.7-14.727a21.778,21.778,0,0,1-1.529-3.123c-.608-.956-1-1.494-1-1.494l-37.065,14.7-.095,1.469Z" transform="translate(-554.862 -223.874)" opacity="0.1"/>
      <path id="Path_369" data-name="Path 369" d="M887.869,295.917s23.508-14.274,31.063-8.4l10.494,13.447s6.719,2.1,5.478,15.529l5.015,24.34-15.111,3.78s-8.816,8.4-1.678,20.569c0,0-22.248,18.468-39.879,14.693l1.26-19.728s3.78-10.912-2.939-20.988-.418-19.728,5.877-23.508C887.451,315.649,890.384,299.7,887.869,295.917Z" transform="translate(-550.264 -147.449)" fill="#ea4334"/>
      <path id="Path_370" data-name="Path 370" d="M875.945,477.75s-8.815,1.678-13.014,8.4a26.167,26.167,0,0,1-4.393,5.479,3.332,3.332,0,0,0,.5,5.309c3.332,1.992,8.766,3.232,15.629-2.406C886.439,484.887,875.945,477.75,875.945,477.75Z" transform="translate(-539.6 -243.809)" fill="#db8b8b"/>
      <path id="Path_371" data-name="Path 371" d="M906.359,321.512s8.4-.842,10.494,20.988,5.478,26.865,5.478,26.865,2.1,11.336-2.939,18.049S904.7,408.4,904.7,408.4s-10.494,2.938-12.591-7.555L905.124,376.5s2.1-8.4-2.939-14.274S893.345,317.314,906.359,321.512Z" transform="translate(-557 -165.112)" opacity="0.1"/>
      <path id="Path_372" data-name="Path 372" d="M904.639,318.982s8.4-.842,10.494,20.988,5.478,26.865,5.478,26.865,2.1,11.336-2.938,18.049-14.692,20.988-14.692,20.988-10.494,2.938-12.591-7.555L903.4,373.972s2.1-8.4-2.939-14.274S891.64,314.784,904.639,318.982Z" transform="translate(-556.137 -163.838)" fill="#ea4334"/>
      <path id="Path_373" data-name="Path 373" d="M905.04,350.9s-.837,13,2.928,20.151,3.78,16.371,0,21.416" transform="translate(-563.451 -179.998)" opacity="0.1"/>
      <path id="Path_374" data-name="Path 374" d="M900.91,311.687s3.357-3.357,13.014-3.78,13.851-3.357,13.851-3.357" transform="translate(-561.417 -156.632)" opacity="0.1"/>
      <path id="Path_375" data-name="Path 375" d="M922.533,204.693c2.55.314,5.479,1.19,6.385,3.586a24.532,24.532,0,0,1,.583,2.764c.951,3.666,5.08,5.374,7.625,8.178,2.246,2.49,3.237,5.822,3.984,9.084a85.355,85.355,0,0,1,1.494,28.518c-.817,6.973-2.49,13.816-2.958,20.808s.389,14.349,4.208,20.226c1.644,2.525,3.815,4.746,4.981,7.526-2.406,1.952-5.728,2.231-8.831,2.336q-5.414.184-10.833,0a11.553,11.553,0,0,1-5.5-1.145,8.5,8.5,0,0,1-2.889-3.1c-2.067-3.486-2.585-7.72-2.49-11.784s.732-8.108.807-12.177c.04-2.216-.135-4.572-1.41-6.385a20.79,20.79,0,0,0-3.516-3.252c-4.482-3.984-6.036-10.369-6.186-16.371s.842-12.013.334-17.995c-.2-2.341-1.076-5.155-3.377-5.608a11.883,11.883,0,0,1-2.192-.279c-1.848-.712-1.669-3.317-2.2-5.225-.593-2.142-2.42-3.8-2.934-5.977-1.21-5.08,5.255-11.141,9.493-12.909C911.422,203.707,917.991,204.135,922.533,204.693Z" transform="translate(-559.692 -106.222)" opacity="0.1"/>
      <path id="Path_376" data-name="Path 376" d="M923.373,203.01c2.55.314,5.479,1.19,6.385,3.586a24.519,24.519,0,0,1,.583,2.764c.951,3.666,5.08,5.374,7.625,8.178,2.246,2.49,3.237,5.822,3.984,9.084a85.364,85.364,0,0,1,1.494,28.518c-.817,6.973-2.49,13.816-2.958,20.808s.389,14.349,4.208,20.226c1.644,2.525,3.815,4.746,4.981,7.526-2.406,1.952-5.728,2.231-8.83,2.336q-5.414.184-10.833,0a11.553,11.553,0,0,1-5.5-1.145,8.5,8.5,0,0,1-2.889-3.1c-2.067-3.486-2.585-7.72-2.49-11.784s.732-8.108.807-12.177c.04-2.216-.135-4.572-1.409-6.385a20.793,20.793,0,0,0-3.516-3.252c-4.482-3.984-6.036-10.369-6.186-16.371s.842-12.013.334-17.995c-.2-2.341-1.076-5.155-3.377-5.608a11.9,11.9,0,0,1-2.192-.279c-1.847-.712-1.668-3.317-2.2-5.225-.593-2.142-2.42-3.8-2.934-5.977-1.21-5.08,5.255-11.141,9.493-12.909C912.261,202.018,918.831,202.447,923.373,203.01Z" transform="translate(-560.113 -105.372)" fill="#472727"/>
    </g>
  </g>
</svg>
